<?xml version="1.0" encoding="utf-8"?>
<!-- Generator: Adobe Illustrator 15.0.0, SVG Export Plug-In . SVG Version: 6.00 Build 0)  -->
<!DOCTYPE svg PUBLIC "-//W3C//DTD SVG 1.1//EN" "http://www.w3.org/Graphics/SVG/1.1/DTD/svg11.dtd">
<svg version="1.1" id="Слой_1" xmlns="http://www.w3.org/2000/svg" xmlns:xlink="http://www.w3.org/1999/xlink" x="0px" y="0px"
	 width="640px" height="1136px" viewBox="0 0 640 1136" enable-background="new 0 0 640 1136" xml:space="preserve">
<g>
	<rect fill="#FFFFFF" stroke="#FFFFFF" stroke-width="0.5" width="640" height="1136"/>
	<g>
		<g>
			<path fill="#4E4E4E" d="M222.8,425.89v10.313h14.075v6.431H222.8v16.805h-7.645v-40.042h24.813v6.492H222.8z"/>
			<path fill="#4E4E4E" d="M248.89,426.011c-2.245,0-4.126-2.184-4.126-4.914s1.881-4.914,4.126-4.914
				c2.244,0,4.064,2.184,4.064,4.914S251.134,426.011,248.89,426.011z M245.25,459.439v-28.211h7.22v28.211H245.25z"/>
			<path fill="#4E4E4E" d="M278.983,439.055c-0.729-0.485-1.396-0.91-1.941-1.213c-2.003-1.213-4.429-1.941-6.492-1.941
				c-2.79,0-4.61,1.092-4.61,2.669c0,1.274,0.971,2.063,3.519,2.973c3.155,1.092,7.22,2.912,8.493,3.883
				c1.76,1.213,2.912,3.762,2.912,6.249c0,5.157-4.489,8.554-11.284,8.554c-1.396,0-2.912-0.182-4.61-0.546
				c-2.609-0.546-3.883-1.031-6.978-2.609l2.306-5.885c2.852,1.759,4.004,2.306,6.067,2.973c1.092,0.364,2.123,0.546,3.154,0.546
				c2.791,0,4.429-0.91,4.429-2.427c0-1.274-0.91-2.245-2.852-2.973l-4.854-1.881c-4.975-1.88-7.28-4.55-7.28-8.312
				c0-5.278,4.611-8.857,11.467-8.857c1.335,0,2.912,0.182,4.672,0.546c2.669,0.546,3.64,0.91,6.188,2.366L278.983,439.055z"/>
			<path fill="#4E4E4E" d="M305.193,459.439v-18.14c0-3.519-0.607-4.792-2.366-4.792c-1.517,0-3.641,1.517-6.795,4.914l-0.971,1.031
				v16.987h-7.28v-44.228h7.28V435.9c3.397-3.701,6.188-5.217,9.768-5.217c5.097,0,7.645,2.669,7.645,8.008v20.749H305.193z"/>
			<path fill="#4E4E4E" d="M340.869,458.226c-2.973,1.334-6.006,2.002-9.282,2.002c-8.372,0-13.651-5.521-13.651-14.136
				c0-8.918,6.067-15.653,14.136-15.653c6.977,0,11.83,5.278,11.83,12.923v3.094h-18.686c0.121,2.366,0.303,3.337,0.971,4.49
				c1.213,2.063,3.64,3.397,6.31,3.397c1.092,0,2.184-0.122,3.337-0.485c1.698-0.485,2.791-1.031,5.399-2.669l2.669,5.521
				C342.568,457.438,341.537,457.923,340.869,458.226z M331.587,435.9c-3.216,0-5.399,2.184-6.006,6.006h11.041
				C336.44,437.599,334.984,435.9,331.587,435.9z"/>
			<path fill="#4E4E4E" d="M363.5,439.843c-0.788-0.606-1.396-0.849-2.184-0.849c-1.153,0-2.427,0.789-3.52,2.123
				c-1.334,1.638-1.941,3.276-1.941,5.4v12.922h-7.219v-28.211h6.248l0.304,6.188c2.73-4.792,4.489-6.613,6.674-6.613
				c1.517,0,2.791,0.667,3.943,2.002L363.5,439.843z"/>
			<path fill="#4E4E4E" d="M404.515,459.439v-18.14c0-3.519-0.607-4.792-2.306-4.792c-0.91,0-2.366,0.728-3.943,2.063
				c-1.031,0.85-2.063,1.881-3.883,3.943v16.927h-7.28v-18.14c0-3.519-0.606-4.792-2.366-4.792c-1.517,0-3.641,1.517-6.795,4.914
				l-0.971,1.031v16.987h-7.28v-28.211h7.28v4.671c3.397-3.701,6.188-5.217,9.768-5.217c4.187,0,6.734,1.941,7.401,5.521
				c3.095-3.701,6.31-5.521,10.011-5.521c5.096,0,7.645,2.669,7.645,8.008v20.749H404.515z"/>
			<path fill="#4E4E4E" d="M441.646,459.804h-1.517c-3.64,0-4.793-0.607-6.067-3.094c-2.669,2.427-5.035,3.458-7.887,3.458
				c-4.793,0-8.19-3.155-8.19-7.644c0-0.971,0.183-1.941,0.485-2.852c0.971-2.609,2.67-3.943,6.795-5.157l8.009-2.305v-2.366
				c0-3.033-1.092-4.429-3.458-4.429c-2.185,0-3.943,1.153-3.943,2.548c0,0.242,0.061,0.364,0.182,0.728l-6.916,1.517
				c-0.304-0.85-0.364-1.153-0.364-1.941c0-4.975,4.368-7.827,12.013-7.827c6.734,0,9.768,2.791,9.768,8.979v11.77
				c0,2.548,0.303,2.973,2.244,3.155L441.646,459.804z M433.274,446.881l-7.22,2.366c-0.425,1.092-0.546,1.638-0.546,2.366
				c0,1.82,1.092,2.912,2.912,2.912c0.91,0,2.002-0.304,2.973-0.85c0.485-0.243,0.85-0.485,1.881-1.274V446.881z"/>
			<path fill="#4E4E4E" d="M466.463,459.439v-18.14c0-3.519-0.607-4.792-2.366-4.792c-1.517,0-3.641,1.517-6.795,4.914l-0.971,1.031
				v16.987h-7.28v-28.211h7.28v4.671c3.397-3.701,6.188-5.217,9.768-5.217c5.097,0,7.645,2.669,7.645,8.008v20.749H466.463z"/>
			<path fill="#4E4E4E" d="M485.211,437.174h-4.368c0.971-1.82,1.214-2.487,1.881-4.489c0.729-2.063,0.85-2.609,0.971-4.55
				l-3.337-8.129c2.366-1.153,3.216-1.335,5.157-1.335c3.276,0,4.793,1.577,4.793,5.036
				C490.308,427.406,488.306,432.624,485.211,437.174z"/>
			<path fill="#4E4E4E" d="M515.669,439.055c-0.729-0.485-1.396-0.91-1.941-1.213c-2.003-1.213-4.429-1.941-6.492-1.941
				c-2.79,0-4.61,1.092-4.61,2.669c0,1.274,0.971,2.063,3.519,2.973c3.155,1.092,7.22,2.912,8.493,3.883
				c1.76,1.213,2.912,3.762,2.912,6.249c0,5.157-4.489,8.554-11.284,8.554c-1.396,0-2.912-0.182-4.61-0.546
				c-2.609-0.546-3.883-1.031-6.978-2.609l2.306-5.885c2.852,1.759,4.004,2.306,6.067,2.973c1.092,0.364,2.123,0.546,3.154,0.546
				c2.791,0,4.429-0.91,4.429-2.427c0-1.274-0.91-2.245-2.852-2.973l-4.854-1.881c-4.975-1.88-7.28-4.55-7.28-8.312
				c0-5.278,4.611-8.857,11.467-8.857c1.335,0,2.912,0.182,4.672,0.546c2.669,0.546,3.64,0.91,6.188,2.366L515.669,439.055z"/>
			<path fill="#4E4E4E" d="M312.959,514.834c-12.498,0-21.234-8.615-21.295-20.809c0-12.377,8.615-20.749,21.295-20.749
				c12.62,0,21.234,8.372,21.234,20.749C334.193,506.22,325.396,514.834,312.959,514.834z M312.959,479.889
				c-7.584,0-13.165,6.067-13.165,14.136c0,8.129,5.581,14.136,13.165,14.136c7.522,0,13.105-6.006,13.105-14.136
				C326.064,485.956,320.482,479.889,312.959,479.889z"/>
			<path fill="#4E4E4E" d="M354.642,494.45c-0.788-0.606-1.396-0.849-2.184-0.849c-1.153,0-2.427,0.789-3.519,2.123
				c-1.335,1.638-1.941,3.276-1.941,5.4v12.922h-7.22v-28.211h6.249l0.303,6.188c2.73-4.792,4.489-6.613,6.674-6.613
				c1.517,0,2.791,0.667,3.943,2.002L354.642,494.45z"/>
			<path fill="#4E4E4E" d="M382.309,514.41h-1.517c-3.64,0-4.793-0.607-6.067-3.094c-2.669,2.427-5.035,3.458-7.887,3.458
				c-4.793,0-8.19-3.155-8.19-7.644c0-0.971,0.183-1.941,0.485-2.852c0.971-2.609,2.67-3.943,6.795-5.157l8.009-2.305v-2.366
				c0-3.033-1.092-4.429-3.458-4.429c-2.185,0-3.943,1.153-3.943,2.548c0,0.242,0.061,0.364,0.182,0.728l-6.916,1.517
				c-0.304-0.85-0.364-1.153-0.364-1.941c0-4.975,4.368-7.827,12.013-7.827c6.734,0,9.768,2.791,9.768,8.979v11.77
				c0,2.548,0.303,2.973,2.244,3.155L382.309,514.41z M373.937,501.487l-7.22,2.366c-0.425,1.092-0.546,1.638-0.546,2.366
				c0,1.82,1.092,2.912,2.912,2.912c0.91,0,2.002-0.304,2.973-0.85c0.485-0.243,0.85-0.485,1.881-1.274V501.487z"/>
			<path fill="#4E4E4E" d="M409.49,513.196c-2.609,1.092-5.461,1.638-8.251,1.638c-8.736,0-14.379-5.763-14.379-14.621
				c0-9.1,6.006-15.228,14.985-15.228c1.577,0,3.094,0.182,4.61,0.485c2.063,0.485,3.034,0.91,5.399,2.306l-3.458,5.521
				c-2.123-1.638-3.519-2.184-5.702-2.184c-4.793,0-8.19,3.761-8.19,9.04c0,5.036,3.033,8.494,7.401,8.494
				c2.427,0,4.187-0.607,7.28-2.427l2.669,5.885C410.824,512.59,410.036,512.954,409.49,513.196z"/>
			<path fill="#4E4E4E" d="M415.982,514.046v-44.228h7.22v44.228H415.982z"/>
			<path fill="#4E4E4E" d="M451.172,512.833c-2.973,1.334-6.006,2.002-9.282,2.002c-8.372,0-13.65-5.521-13.65-14.136
				c0-8.918,6.066-15.653,14.136-15.653c6.977,0,11.83,5.278,11.83,12.923v3.094H435.52c0.121,2.366,0.303,3.337,0.971,4.49
				c1.213,2.063,3.64,3.397,6.31,3.397c1.092,0,2.184-0.122,3.337-0.485c1.698-0.485,2.791-1.031,5.399-2.669l2.669,5.521
				C452.871,512.044,451.84,512.529,451.172,512.833z M441.89,490.506c-3.216,0-5.399,2.184-6.006,6.006h11.041
				C446.743,492.205,445.287,490.506,441.89,490.506z"/>
		</g>
		<g>
			<g>
				<polygon fill="#4E4E4E" points="231.316,521.428 231.316,555.083 231.316,588.738 291.578,555.083 				"/>
				<path fill="#4E4E4E" d="M228.282,593.908v-77.65l69.518,38.825L228.282,593.908z M234.35,526.598v56.971l51.007-28.485
					L234.35,526.598z"/>
			</g>
			<g>
				<path fill="#4E4E4E" d="M318.873,555.083c-65.038,0-122.092,27.066-154.44,67.79c32.349,40.706,89.402,67.778,154.44,67.778
					c65.031,0,122.085-27.072,154.437-67.778C440.958,582.149,383.904,555.083,318.873,555.083z"/>
				<path fill="#4E4E4E" d="M318.873,693.686c-63.896,0-122.519-25.767-156.814-68.925l-1.501-1.888l1.499-1.887
					c34.289-43.165,92.911-68.938,156.816-68.938c63.896,0,122.521,25.772,156.813,68.938l1.499,1.887l-1.502,1.888
					C441.385,667.919,382.764,693.686,318.873,693.686z M168.333,622.873c33.357,40.585,89.422,64.744,150.54,64.744
					c61.112,0,117.176-24.159,150.535-64.744c-33.351-40.591-89.411-64.757-150.535-64.757
					C257.745,558.116,201.682,582.282,168.333,622.873z"/>
			</g>
			<g>
				<path fill="#FFFFFF" d="M411.942,602.751c0,6.204-5.027,11.229-11.225,11.229c-6.198,0-11.226-5.024-11.226-11.229
					c0-6.197,5.027-11.233,11.226-11.233C406.915,591.518,411.942,596.554,411.942,602.751z"/>
				<path fill="#4E4E4E" d="M400.718,617.013c-7.863,0-14.26-6.398-14.26-14.262c0-7.868,6.396-14.268,14.26-14.268
					c7.862,0,14.259,6.399,14.259,14.268C414.977,610.614,408.58,617.013,400.718,617.013z M400.718,594.551
					c-4.516,0-8.192,3.68-8.192,8.2c0,4.519,3.677,8.194,8.192,8.194c4.515,0,8.191-3.676,8.191-8.194
					C408.909,598.23,405.232,594.551,400.718,594.551z"/>
			</g>
			<g>
				<path fill="#FFFFFF" d="M366.123,722.659c57.099-12.218,103.205-50.53,122.892-100.598H366.123H164.942
					c24.038,61.106,87.417,104.857,162.033,104.857C340.458,726.919,353.526,725.355,366.123,722.659z"/>
				<path fill="#4E4E4E" d="M326.976,729.953c-73.479,0-139.73-42.913-164.856-106.781l-1.63-4.145h332.978l-1.629,4.145
					c-20.347,51.748-67.105,90.049-125.081,102.453C353.34,728.498,339.958,729.953,326.976,729.953z M169.469,625.095
					c25.413,59.276,88.102,98.791,157.507,98.791c12.556,0,25.511-1.41,38.511-4.192c54.42-11.646,98.577-46.851,119.004-94.599
					H169.469z"/>
			</g>
			<g>
				<path fill="#4E4E4E" d="M284.915,662.584c21.488-4.823,38.84-19.95,46.25-39.717h-46.25h-75.709
					c9.045,24.127,32.897,41.399,60.977,41.399C275.258,664.267,280.176,663.65,284.915,662.584z"/>
				<path fill="#4E4E4E" d="M270.183,667.3c-28.447,0-54.091-17.429-63.817-43.369l-1.534-4.097h130.712l-1.537,4.097
					c-7.878,21.02-25.982,36.576-48.424,41.612C280.4,666.708,275.222,667.3,270.183,667.3z M213.766,625.901
					c9.893,21.304,32.017,35.331,56.417,35.331c4.592,0,9.323-0.542,14.066-1.608c18.951-4.254,34.493-16.715,42.362-33.723H213.766
					z"/>
			</g>
			<g>
				<g>
					<polygon fill="#4E4E4E" points="107.204,588.406 129.945,621.256 107.204,655.717 167.467,622.062 					"/>
					<path fill="#4E4E4E" d="M107.943,657.041l-2.005-2.16l22.176-33.604l-22.157-32.008l1.986-2.187l62.634,34.979L107.943,657.041
						z M112.173,592.918l19.604,28.316l-19.878,30.124l52.457-29.297L112.173,592.918z"/>
				</g>
				<g>
					<path fill="#4E4E4E" d="M108.686,658.365l-4.011-4.319l21.609-32.749l-21.573-31.163l3.976-4.376l65.002,36.304
						L108.686,658.365z M117.141,597.431l16.467,23.783L116.593,647l44.652-24.938L117.141,597.431z"/>
					<path fill="#4E4E4E" d="M108.385,660.27l-5.633-6.064l21.701-32.888l-21.675-31.312l5.596-6.159l68.426,38.215L108.385,660.27z
						 M106.597,653.886l2.389,2.574l61.591-34.398l-61.579-34.393l-2.355,2.592l21.471,31.016L106.597,653.886z M117.332,648.325
						l-2.006-2.16l16.45-24.931l-15.883-22.941l1.986-2.187l46.476,25.955L117.332,648.325z M122.109,601.942l13.328,19.251
						l-14.152,21.449l36.85-20.581L122.109,601.942z"/>
				</g>
			</g>
		</g>
	</g>
</g>
</svg>
