<?xml version="1.0" encoding="utf-8"?>
<!-- Generator: Adobe Illustrator 15.0.0, SVG Export Plug-In . SVG Version: 6.00 Build 0)  -->
<!DOCTYPE svg PUBLIC "-//W3C//DTD SVG 1.1//EN" "http://www.w3.org/Graphics/SVG/1.1/DTD/svg11.dtd">
<svg version="1.1" id="Слой_1" xmlns="http://www.w3.org/2000/svg" xmlns:xlink="http://www.w3.org/1999/xlink" x="0px" y="0px"
	 width="640px" height="1136px" viewBox="0 0 640 1136" enable-background="new 0 0 640 1136" xml:space="preserve">
<g>
	<rect fill="#FFFFFF" width="640" height="1136"/>
	<g>
		<text transform="matrix(1 0 0 1 209.6973 459.4385)"><tspan x="0" y="0" font-family="'ScalaSans-Bold'" font-size="60.6739">Fisherman’s </tspan><tspan x="80.088" y="54.606" font-family="'ScalaSans-Bold'" font-size="60.6739">Oracle</tspan></text>
		<g>
			<g>
				<polygon points="231.316,521.428 231.316,555.083 231.316,588.738 291.578,555.083 				"/>
				<path d="M228.282,593.907v-77.649l69.518,38.825L228.282,593.907z M234.35,526.598v56.971l51.007-28.485L234.35,526.598z"/>
			</g>
			<g>
				<path d="M318.873,555.083c-65.038,0-122.092,27.066-154.44,67.79c32.349,40.706,89.402,67.778,154.44,67.778
					c65.031,0,122.085-27.072,154.437-67.778C440.958,582.149,383.904,555.083,318.873,555.083z"/>
				<path d="M318.873,693.685c-63.896,0-122.519-25.766-156.814-68.924l-1.501-1.888l1.499-1.887
					c34.289-43.166,92.911-68.938,156.816-68.938c63.896,0,122.521,25.771,156.813,68.938l1.499,1.887l-1.502,1.888
					C441.385,667.919,382.764,693.685,318.873,693.685z M168.333,622.873c33.357,40.585,89.422,64.744,150.54,64.744
					c61.112,0,117.176-24.159,150.535-64.744c-33.351-40.591-89.411-64.757-150.535-64.757
					C257.745,558.116,201.682,582.282,168.333,622.873z"/>
			</g>
			<g>
				<path fill="#FFFFFF" d="M411.942,601.751c0,6.204-5.027,11.229-11.225,11.229c-6.198,0-11.226-5.024-11.226-11.229
					c0-6.197,5.027-11.234,11.226-11.234C406.915,590.517,411.942,595.554,411.942,601.751z"/>
				<path d="M400.718,616.013c-7.863,0-14.26-6.398-14.26-14.262c0-7.868,6.396-14.268,14.26-14.268
					c7.862,0,14.259,6.399,14.259,14.268C414.977,609.614,408.58,616.013,400.718,616.013z M400.718,593.551
					c-4.516,0-8.192,3.68-8.192,8.2c0,4.518,3.677,8.194,8.192,8.194c4.515,0,8.191-3.677,8.191-8.194
					C408.909,597.23,405.232,593.551,400.718,593.551z"/>
			</g>
			<g>
				<path fill="#FFFFFF" d="M366.123,722.659c57.098-12.218,103.205-50.53,122.892-100.598H366.123H164.942
					c24.038,61.106,87.417,104.857,162.033,104.857C340.458,726.919,353.526,725.355,366.123,722.659z"/>
				<path d="M326.976,729.953c-73.479,0-139.73-42.913-164.856-106.781l-1.63-4.145h332.978l-1.629,4.145
					c-20.348,51.748-67.105,90.049-125.081,102.453C353.34,728.498,339.957,729.953,326.976,729.953z M169.469,625.095
					c25.413,59.276,88.102,98.791,157.507,98.791c12.556,0,25.511-1.41,38.511-4.192c54.42-11.646,98.577-46.851,119.004-94.599
					H169.469z"/>
			</g>
			<g>
				<path d="M284.915,662.584c21.488-4.823,38.84-19.95,46.249-39.717h-46.249h-75.709c9.045,24.127,32.897,41.399,60.977,41.399
					C275.258,664.267,280.176,663.65,284.915,662.584z"/>
				<path d="M270.183,667.3c-28.447,0-54.091-17.429-63.817-43.369l-1.534-4.097h130.712l-1.537,4.097
					c-7.878,21.02-25.982,36.576-48.424,41.612C280.4,666.708,275.222,667.3,270.183,667.3z M213.766,625.9
					c9.893,21.305,32.017,35.332,56.417,35.332c4.592,0,9.323-0.542,14.066-1.608c18.951-4.254,34.493-16.715,42.362-33.724H213.766
					z"/>
			</g>
			<g>
				<g>
					<polygon points="107.204,588.406 129.945,621.256 107.204,655.717 167.467,622.062 					"/>
					<path d="M107.943,657.041l-2.006-2.16l22.177-33.604l-22.157-32.008l1.986-2.187l62.634,34.979L107.943,657.041z
						 M112.173,592.918l19.604,28.316l-19.878,30.124l52.457-29.297L112.173,592.918z"/>
				</g>
				<g>
					<path d="M108.686,658.365l-4.011-4.319l21.608-32.749l-21.573-31.163l3.976-4.376l65.002,36.304L108.686,658.365z
						 M117.141,597.43l16.467,23.784L116.593,647l44.652-24.938L117.141,597.43z"/>
					<path d="M108.385,660.27l-5.633-6.064l21.7-32.888l-21.676-31.312l5.597-6.159l68.426,38.215L108.385,660.27z M106.597,653.886
						l2.39,2.574l61.591-34.398l-61.579-34.394l-2.355,2.593l21.472,31.016L106.597,653.886z M117.332,648.325l-2.006-2.16
						l16.45-24.931l-15.883-22.942l1.986-2.187l46.476,25.956L117.332,648.325z M122.109,601.942l13.328,19.251l-14.152,21.449
						l36.849-20.581L122.109,601.942z"/>
				</g>
			</g>
		</g>
	</g>
</g>
</svg>
