<?xml version="1.0" encoding="utf-8"?>
<!-- Generator: Adobe Illustrator 15.0.0, SVG Export Plug-In . SVG Version: 6.00 Build 0)  -->
<!DOCTYPE svg PUBLIC "-//W3C//DTD SVG 1.1//EN" "http://www.w3.org/Graphics/SVG/1.1/DTD/svg11.dtd">
<svg version="1.1" id="Слой_1" xmlns="http://www.w3.org/2000/svg" xmlns:xlink="http://www.w3.org/1999/xlink" x="0px" y="0px"
	 width="640px" height="1136px" viewBox="0 0 640 1136" enable-background="new 0 0 640 1136" xml:space="preserve">
<g>
	<rect fill="#FFFFFF" width="640" height="1136"/>
	<g>
		<path d="M86.58,426.374v10.97h11.601v3.397H86.58v14.319H82.6v-32.035h18.008v3.349H86.58z"/>
		<path d="M113.664,455.69c-5.97,0-10.872-5.291-10.872-11.601c0-6.358,4.902-11.601,10.872-11.601
			c5.922,0,10.824,5.242,10.824,11.601C124.488,450.4,119.586,455.69,113.664,455.69z M113.664,435.741
			c-3.883,0-6.893,3.689-6.893,8.349s3.01,8.349,6.893,8.349c3.835,0,6.844-3.689,6.844-8.349S117.499,435.741,113.664,435.741z"/>
		<path d="M146.039,454.186c-1.796,0.971-3.932,1.504-6.116,1.504c-6.698,0-11.261-4.611-11.261-11.358
			c0-6.941,4.757-11.843,11.504-11.843c1.116,0,2.185,0.146,3.252,0.437c1.456,0.388,2.136,0.728,3.641,1.796l-2.088,2.961
			c-1.698-1.408-2.96-1.893-4.95-1.893c-4.417,0-7.378,3.397-7.378,8.349c0,5.048,2.961,8.203,7.669,8.203
			c2.136,0,3.495-0.485,5.291-1.844l1.893,2.864C146.864,453.749,146.379,454.04,146.039,454.186z"/>
		<path d="M166.716,455.06v-4.563c-2.572,3.543-5.436,5.242-8.736,5.242c-3.835,0-5.873-2.136-5.873-6.165v-16.503h3.64v15.581
			c0,2.718,0.777,3.834,2.621,3.834c2.33,0,5.825-2.475,8.349-5.97v-13.445h3.689v21.988H166.716z"/>
		<path d="M185.5,455.69c-0.922,0-1.941-0.097-3.058-0.291c-2.088-0.388-3.01-0.728-5.194-1.845l1.505-3.058
			c0.729,0.388,1.263,0.68,1.65,0.874c1.554,0.728,3.495,1.213,5.048,1.213c2.233,0,3.884-1.213,3.884-2.912
			c0-0.534-0.194-1.165-0.438-1.505c-0.873-1.262-1.893-1.893-5.824-3.495c-4.271-1.796-5.728-3.301-5.728-5.97
			c0-3.834,3.203-6.213,8.349-6.213c0.922,0,1.893,0.097,2.815,0.243c1.65,0.34,2.427,0.631,4.271,1.65l-1.796,2.961
			c-1.407-0.874-2.038-1.165-3.154-1.456c-0.874-0.243-1.699-0.389-2.524-0.389c-2.476,0-4.077,1.117-4.077,2.767
			c0,0.534,0.194,1.02,0.534,1.359c0.874,0.874,1.456,1.213,5.437,2.864c4.659,1.941,5.97,3.446,5.97,6.892
			C193.169,453.312,190.306,455.69,185.5,455.69z"/>
		<path d="M221.177,455.69c-5.971,0-10.873-5.291-10.873-11.601c0-6.358,4.902-11.601,10.873-11.601
			c5.922,0,10.824,5.242,10.824,11.601C232.001,450.4,227.099,455.69,221.177,455.69z M221.177,435.741
			c-3.884,0-6.893,3.689-6.893,8.349s3.009,8.349,6.893,8.349c3.834,0,6.844-3.689,6.844-8.349S225.011,435.741,221.177,435.741z"/>
		<path d="M252.92,455.06v-15.581c0-1.457-0.098-1.942-0.34-2.573c-0.34-0.728-1.214-1.165-2.232-1.165
			c-2.233,0-4.611,1.65-8.446,5.873v13.445h-3.641v-21.988h3.641v4.611c1.505-1.699,1.941-2.136,3.01-3.01
			c1.65-1.407,3.834-2.184,5.873-2.184c3.883,0,5.776,1.99,5.776,6.116v16.455H252.92z"/>
		<path d="M287.723,440.11v14.95h-3.98v-14.659l-10.678-17.376h4.271l8.592,13.736l8.834-13.736h4.223L287.723,440.11z"/>
		<path d="M307.963,455.69c-5.971,0-10.873-5.291-10.873-11.601c0-6.358,4.902-11.601,10.873-11.601
			c5.922,0,10.824,5.242,10.824,11.601C318.787,450.4,313.885,455.69,307.963,455.69z M307.963,435.741
			c-3.884,0-6.893,3.689-6.893,8.349s3.009,8.349,6.893,8.349c3.834,0,6.844-3.689,6.844-8.349S311.797,435.741,307.963,435.741z"/>
		<path d="M339.464,455.06v-4.563c-2.572,3.543-5.436,5.242-8.736,5.242c-3.835,0-5.873-2.136-5.873-6.165v-16.503h3.64v15.581
			c0,2.718,0.777,3.834,2.621,3.834c2.33,0,5.825-2.475,8.349-5.97v-13.445h3.689v21.988H339.464z"/>
		<path d="M361.694,437.052c-0.729-0.631-1.116-0.874-1.554-0.874c-1.358,0-3.106,1.99-5.193,5.776v13.105h-3.641v-21.988h3.641
			v3.98c2.719-3.495,4.077-4.563,5.728-4.563c0.825,0,1.845,0.534,2.815,1.505L361.694,437.052z"/>
		<path d="M396.836,455.642c0.631,0.825,0.874,1.068,1.602,1.844c0.923,0.922,1.796,1.699,2.621,2.33
			c1.699,1.311,2.768,1.893,5.68,3.155l-2.233,3.058c-3.154-1.65-4.368-2.427-6.358-3.98c-2.232-1.747-3.446-3.009-5.388-5.533
			l-0.68-0.825c-1.989-0.34-2.572-0.485-3.688-0.825c-6.067-2.136-10.339-8.64-10.339-15.823c0-9.61,6.747-16.6,16.115-16.6
			c9.319,0,16.065,6.99,16.065,16.648C410.232,447.536,404.942,454.089,396.836,455.642z M394.167,425.937
			c-6.456,0-11.795,5.922-11.795,13.105c0,7.232,5.29,13.154,11.795,13.154c6.455,0,11.746-5.922,11.746-13.154
			C405.913,431.858,400.622,425.937,394.167,425.937z"/>
		<path d="M431.25,455.06v-4.563c-2.572,3.543-5.436,5.242-8.736,5.242c-3.835,0-5.873-2.136-5.873-6.165v-16.503h3.64v15.581
			c0,2.718,0.777,3.834,2.621,3.834c2.33,0,5.825-2.475,8.349-5.97v-13.445h3.689v21.988H431.25z"/>
		<path d="M444.841,443.75c0,5.339,2.718,8.591,7.184,8.591c1.941,0,3.349-0.534,5.728-2.184l1.456,2.864
			c-3.252,2.039-5.097,2.669-7.96,2.669c-6.116,0-10.242-4.66-10.242-11.601c0-6.989,4.126-11.601,10.388-11.601
			c5.145,0,8.494,3.641,8.494,9.125v2.136H444.841z M451.15,435.79c-3.058,0-5.193,1.844-6.019,5.242h10.775
			C455.858,437.634,454.16,435.79,451.15,435.79z"/>
		<path d="M472.799,455.69c-0.922,0-1.941-0.097-3.058-0.291c-2.088-0.388-3.01-0.728-5.194-1.845l1.505-3.058
			c0.729,0.388,1.263,0.68,1.65,0.874c1.554,0.728,3.495,1.213,5.048,1.213c2.233,0,3.884-1.213,3.884-2.912
			c0-0.534-0.194-1.165-0.438-1.505c-0.873-1.262-1.893-1.893-5.824-3.495c-4.271-1.796-5.728-3.301-5.728-5.97
			c0-3.834,3.203-6.213,8.349-6.213c0.922,0,1.893,0.097,2.815,0.243c1.65,0.34,2.427,0.631,4.271,1.65l-1.796,2.961
			c-1.407-0.874-2.038-1.165-3.154-1.456c-0.874-0.243-1.699-0.389-2.524-0.389c-2.476,0-4.077,1.117-4.077,2.767
			c0,0.534,0.194,1.02,0.534,1.359c0.874,0.874,1.456,1.213,5.437,2.864c4.659,1.941,5.97,3.446,5.97,6.892
			C480.468,453.312,477.604,455.69,472.799,455.69z"/>
		<path d="M492.02,455.69c-2.523,0-4.223-1.99-4.223-4.902V436.13h-3.688v-2.136l3.688-0.922v-6.407h3.641v6.407h5.824v3.058h-5.824
			v12.522l0.048,0.971c0.049,0.68,0.049,1.117,0.098,1.359c0.049,0.728,0.485,1.068,1.262,1.068c0.922,0,1.65-0.388,3.204-1.553
			l1.504,2.427C494.98,455.06,493.767,455.69,492.02,455.69z"/>
		<path d="M504.396,427.781c-1.311,0-2.378-1.068-2.378-2.378s1.067-2.378,2.378-2.378s2.379,1.068,2.379,2.378
			S505.707,427.781,504.396,427.781z M502.552,455.06v-21.988h3.641v21.988H502.552z"/>
		<path d="M523.326,455.69c-5.971,0-10.873-5.291-10.873-11.601c0-6.358,4.902-11.601,10.873-11.601
			c5.922,0,10.824,5.242,10.824,11.601C534.15,450.4,529.248,455.69,523.326,455.69z M523.326,435.741
			c-3.884,0-6.893,3.689-6.893,8.349s3.009,8.349,6.893,8.349c3.834,0,6.844-3.689,6.844-8.349S527.16,435.741,523.326,435.741z"/>
		<path d="M555.07,455.06v-15.581c0-1.457-0.098-1.942-0.34-2.573c-0.34-0.728-1.214-1.165-2.232-1.165
			c-2.233,0-4.611,1.65-8.446,5.873v13.445h-3.641v-21.988h3.641v4.611c1.505-1.699,1.941-2.136,3.01-3.01
			c1.65-1.407,3.834-2.184,5.873-2.184c3.883,0,5.776,1.99,5.776,6.116v16.455H555.07z"/>
		<path d="M138.685,513.938c-3.009-0.194-4.077-0.971-4.271-3.058c-1.116,0.971-1.602,1.359-2.329,1.747
			c-1.359,0.777-3.106,1.262-4.66,1.262c-3.543,0-5.873-2.281-5.873-5.776c0-3.204,1.699-5.339,4.902-6.116l7.62-1.796v-3.98
			c0-1.796-1.358-2.718-4.174-2.718c-2.281,0-3.35,0.631-3.35,1.893c0,0.243,0.049,0.437,0.194,0.825l-3.688,0.777
			c-0.34-0.583-0.389-0.825-0.389-1.359c0-2.912,3.204-4.902,7.912-4.902c4.417,0,7.184,2.087,7.184,5.485v11.892v1.602
			c0.097,0.583,0.68,0.971,1.796,1.165L138.685,513.938z M134.073,503.259l-8.251,2.136c-0.534,1.019-0.631,1.504-0.631,2.378
			c0,1.747,1.165,2.864,2.961,2.864c1.649,0,2.767-0.534,5.921-2.815V503.259z"/>
		<path d="M160.867,513.307v-15.581c0-1.457-0.098-1.942-0.34-2.573c-0.34-0.728-1.214-1.165-2.232-1.165
			c-2.233,0-4.611,1.65-8.446,5.873v13.445h-3.641v-21.988h3.641v4.611c1.505-1.699,1.941-2.136,3.01-3.01
			c1.65-1.407,3.834-2.184,5.873-2.184c3.883,0,5.776,1.99,5.776,6.116v16.455H160.867z"/>
		<path d="M187.03,513.307v-2.767c-1.942,2.184-4.515,3.397-7.281,3.397c-5.388,0-9.174-4.514-9.174-11.018
			c0-7.086,4.708-12.183,11.213-12.183c2.329,0,3.834,0.437,5.242,1.505v-14.319h3.688v35.384H187.03z M187.03,498.988
			c0-1.699-0.098-2.184-0.438-2.912c-0.68-1.213-2.184-1.845-4.417-1.845c-4.659,0-7.669,3.349-7.669,8.64
			c0,4.417,2.476,7.62,5.873,7.62c1.311,0,2.912-0.582,4.271-1.504c0.825-0.631,1.359-1.117,2.379-2.378V498.988z"/>
		<path d="M228.238,486.708c-1.65-0.971-2.33-1.311-3.35-1.65c-1.213-0.389-3.154-0.68-4.417-0.68c-3.64,0-6.115,1.796-6.115,4.514
			c0,2.378,1.407,3.592,7.911,7.038c2.185,1.165,3.884,2.232,5.048,3.252c1.554,1.311,2.476,3.495,2.476,5.825
			c0,5.484-4.077,8.931-10.532,8.931c-2.185,0-4.223-0.388-5.922-1.068c-1.214-0.485-2.039-0.971-4.126-2.378l2.039-3.155
			c1.796,1.213,2.572,1.65,3.688,2.087c1.408,0.534,2.961,0.825,4.611,0.825c3.786,0,6.067-1.796,6.067-4.854
			c0-0.922-0.146-1.699-0.485-2.281c-0.534-0.971-1.456-1.893-2.719-2.621c-0.533-0.292-2.329-1.213-5.339-2.864
			c-4.806-2.573-6.844-5.097-6.844-8.397c0-5.096,4.223-8.494,10.581-8.494c1.845,0,3.737,0.243,5.388,0.777
			c1.311,0.437,2.087,0.825,3.884,1.893L228.238,486.708z"/>
		<path d="M245.761,513.889c-2.33,0-3.834-0.437-5.242-1.505v12.523h-3.641v-33.588h3.641v2.767
			c1.845-2.136,4.466-3.397,7.232-3.397c5.437,0,9.223,4.514,9.223,11.018C256.974,508.792,252.265,513.889,245.761,513.889z
			 M247.169,494.134c-1.311,0-2.913,0.582-4.271,1.504c-0.874,0.631-1.359,1.116-2.379,2.427v7.621c0,1.893,0.049,2.136,0.438,2.864
			c0.728,1.262,2.184,1.893,4.417,1.893c4.659,0,7.669-3.397,7.669-8.688C253.042,497.337,250.566,494.134,247.169,494.134z"/>
		<path d="M264.983,501.997c0,5.339,2.718,8.591,7.184,8.591c1.941,0,3.349-0.534,5.728-2.184l1.456,2.864
			c-3.252,2.039-5.097,2.669-7.96,2.669c-6.116,0-10.242-4.66-10.242-11.601c0-6.989,4.126-11.601,10.388-11.601
			c5.145,0,8.494,3.641,8.494,9.125v2.136H264.983z M271.293,494.037c-3.058,0-5.193,1.844-6.019,5.242h10.775
			C276.001,495.881,274.303,494.037,271.293,494.037z"/>
		<path d="M301.289,512.433c-1.796,0.971-3.932,1.504-6.116,1.504c-6.698,0-11.261-4.611-11.261-11.358
			c0-6.941,4.757-11.843,11.504-11.843c1.116,0,2.185,0.146,3.252,0.437c1.456,0.388,2.136,0.728,3.641,1.796l-2.088,2.961
			c-1.698-1.408-2.96-1.893-4.95-1.893c-4.417,0-7.378,3.397-7.378,8.349c0,5.048,2.961,8.203,7.669,8.203
			c2.136,0,3.495-0.485,5.291-1.844l1.893,2.864C302.114,511.996,301.629,512.287,301.289,512.433z"/>
		<path d="M309.395,486.028c-1.311,0-2.378-1.068-2.378-2.378s1.067-2.378,2.378-2.378s2.379,1.068,2.379,2.378
			S310.705,486.028,309.395,486.028z M307.55,513.307v-21.988h3.641v21.988H307.55z"/>
		<path d="M333.082,481.563c-1.554-0.534-2.476-0.728-3.592-0.728c-3.738,0-5.582,2.524-5.582,7.766v2.718h5.193v3.058h-5.193v18.93
			h-3.641v-18.93h-3.688v-2.136l3.688-0.922v-3.64c0-6.262,3.688-10.242,9.465-10.242c1.845,0,3.155,0.291,4.854,1.068
			L333.082,481.563z"/>
		<path d="M339.634,514.52c-1.019,2.718-1.844,4.514-3.058,6.456c-0.874,1.408-1.505,2.33-3.301,4.611l-2.912-2.233
			c2.185-2.427,2.912-3.397,4.174-5.679c1.214-2.136,1.796-3.446,3.059-6.795l-8.154-19.561h4.077l5.29,13.445l0.729,2.136
			l0.485-2.136l4.514-13.445h3.737L339.634,514.52z"/>
		<path d="M370.116,484.621v10.97h11.601v3.397h-11.601v14.319h-3.979v-32.035h18.007v3.349H370.116z"/>
		<path d="M392.201,486.028c-1.311,0-2.378-1.068-2.378-2.378s1.067-2.378,2.378-2.378s2.379,1.068,2.379,2.378
			S393.512,486.028,392.201,486.028z M390.356,513.307v-21.988h3.641v21.988H390.356z"/>
		<path d="M409.287,513.938c-0.922,0-1.941-0.097-3.058-0.291c-2.088-0.388-3.01-0.728-5.194-1.845l1.505-3.058
			c0.729,0.388,1.263,0.68,1.65,0.874c1.554,0.728,3.495,1.213,5.048,1.213c2.233,0,3.884-1.213,3.884-2.912
			c0-0.534-0.194-1.165-0.438-1.505c-0.873-1.262-1.893-1.893-5.824-3.495c-4.271-1.796-5.728-3.301-5.728-5.97
			c0-3.834,3.203-6.213,8.349-6.213c0.922,0,1.893,0.097,2.815,0.243c1.65,0.34,2.427,0.631,4.271,1.65l-1.796,2.961
			c-1.407-0.874-2.038-1.165-3.154-1.456c-0.874-0.243-1.699-0.389-2.524-0.389c-2.476,0-4.077,1.117-4.077,2.767
			c0,0.534,0.194,1.02,0.534,1.359c0.874,0.874,1.456,1.213,5.437,2.864c4.659,1.941,5.97,3.446,5.97,6.892
			C416.956,511.559,414.093,513.938,409.287,513.938z"/>
		<path d="M438.264,513.307v-15.581c0-1.457-0.048-1.942-0.339-2.573c-0.34-0.728-1.165-1.165-2.185-1.165
			c-2.281,0-4.66,1.65-8.445,5.873v13.445h-3.641v-35.384h3.641v18.008c1.504-1.699,1.893-2.136,2.96-3.01
			c1.699-1.407,3.835-2.184,5.922-2.184c3.883,0,5.776,1.99,5.776,6.116v16.455H438.264z"/>
		<path d="M451.903,486.028c-1.311,0-2.378-1.068-2.378-2.378s1.067-2.378,2.378-2.378s2.379,1.068,2.379,2.378
			S453.214,486.028,451.903,486.028z M450.059,513.307v-21.988h3.641v21.988H450.059z"/>
		<path d="M476.707,513.307v-15.581c0-1.457-0.098-1.942-0.34-2.573c-0.34-0.728-1.214-1.165-2.232-1.165
			c-2.233,0-4.611,1.65-8.446,5.873v13.445h-3.641v-21.988h3.641v4.611c1.505-1.699,1.941-2.136,3.01-3.01
			c1.65-1.407,3.834-2.184,5.873-2.184c3.883,0,5.776,1.99,5.776,6.116v16.455H476.707z"/>
		<path d="M503.402,494.377c0.874,1.311,1.311,2.767,1.311,4.563c0,4.465-3.932,8.3-8.542,8.3c-0.292,0-0.729-0.048-1.359-0.097
			c-0.146,0-0.389-0.048-0.729-0.048c-2.038,1.699-2.863,2.669-2.863,3.301c0,0.582,0.485,0.776,1.845,0.776h8.202
			c4.077,0,5.922,1.602,5.922,5.145c0,5.145-5.29,9.271-11.892,9.271c-4.611,0-8.592-2.427-8.592-5.291
			c0-0.631,0.243-1.407,0.68-2.281c0.631-1.213,1.263-2.039,2.912-3.786c-2.232-0.631-3.154-1.359-3.154-2.621
			c0-1.408,1.358-3.058,4.319-5.485c-2.767-1.505-4.223-3.932-4.223-6.99c0-4.951,3.641-8.397,8.785-8.397
			c1.603,0,2.524,0.194,4.66,0.922h3.349l3.98-0.34v3.058H503.402z M501.267,514.52h-8.202l-0.729,1.117
			c-1.407,2.184-1.845,3.058-1.845,3.883c0,1.65,2.185,2.815,5.146,2.815c4.466,0,8.494-2.621,8.494-5.582
			C504.131,515.248,503.209,514.52,501.267,514.52z M495.782,493.503c-2.67,0-4.854,2.476-4.854,5.485s2.184,5.485,4.902,5.485
			c2.767,0,4.902-2.378,4.902-5.485C500.733,495.93,498.549,493.503,495.782,493.503z"/>
		<path d="M236.44,545.003c-2.427-1.699-4.757-2.427-7.863-2.427c-6.795,0-11.648,5.242-11.648,12.572
			c0,8.057,4.902,13.348,12.426,13.348c2.718,0,4.805-0.437,7.378-1.504l1.116,3.106c-1.941,0.874-2.719,1.165-4.32,1.554
			c-1.602,0.388-2.912,0.533-4.417,0.533c-9.659,0-16.503-6.94-16.503-16.793c0-9.368,6.941-16.455,16.115-16.455
			c2.087,0,4.125,0.34,6.019,1.068c1.407,0.485,2.087,0.874,3.688,1.99L236.44,545.003z"/>
		<path d="M251.294,572.184c-5.971,0-10.873-5.29-10.873-11.6c0-6.358,4.902-11.601,10.873-11.601
			c5.922,0,10.824,5.242,10.824,11.601C262.118,566.894,257.216,572.184,251.294,572.184z M251.294,552.235
			c-3.884,0-6.893,3.689-6.893,8.349s3.009,8.349,6.893,8.349c3.834,0,6.844-3.689,6.844-8.349S255.128,552.235,251.294,552.235z"/>
		<path d="M283.038,571.553v-15.58c0-1.457-0.098-1.942-0.34-2.573c-0.34-0.728-1.214-1.165-2.232-1.165
			c-2.233,0-4.611,1.65-8.446,5.873v13.445h-3.641v-21.987h3.641v4.611c1.505-1.699,1.941-2.136,3.01-3.01
			c1.65-1.407,3.834-2.184,5.873-2.184c3.883,0,5.776,1.99,5.776,6.116v16.454H283.038z"/>
		<path d="M309.201,571.553v-2.766c-1.942,2.184-4.515,3.397-7.281,3.397c-5.388,0-9.174-4.514-9.174-11.018
			c0-7.086,4.708-12.183,11.213-12.183c2.329,0,3.834,0.437,5.242,1.505v-14.319h3.688v35.384H309.201z M309.201,557.234
			c0-1.699-0.098-2.184-0.438-2.912c-0.68-1.213-2.184-1.845-4.417-1.845c-4.659,0-7.669,3.349-7.669,8.64
			c0,4.417,2.476,7.62,5.873,7.62c1.311,0,2.912-0.582,4.271-1.504c0.825-0.631,1.359-1.116,2.379-2.378V557.234z"/>
		<path d="M322.84,544.275c-1.311,0-2.378-1.068-2.378-2.378s1.067-2.378,2.378-2.378s2.379,1.068,2.379,2.378
			S324.15,544.275,322.84,544.275z M320.995,571.553v-21.987h3.641v21.987H320.995z"/>
		<path d="M337.449,572.184c-2.523,0-4.223-1.989-4.223-4.902v-14.658h-3.688v-2.136l3.688-0.922v-6.407h3.641v6.407h5.824v3.058
			h-5.824v12.522l0.048,0.971c0.049,0.679,0.049,1.116,0.098,1.359c0.049,0.728,0.485,1.068,1.262,1.068
			c0.922,0,1.65-0.388,3.204-1.553l1.504,2.426C340.41,571.553,339.196,572.184,337.449,572.184z"/>
		<path d="M349.826,544.275c-1.311,0-2.378-1.068-2.378-2.378s1.067-2.378,2.378-2.378s2.379,1.068,2.379,2.378
			S351.137,544.275,349.826,544.275z M347.981,571.553v-21.987h3.641v21.987H347.981z"/>
		<path d="M368.757,572.184c-5.971,0-10.873-5.29-10.873-11.6c0-6.358,4.902-11.601,10.873-11.601
			c5.922,0,10.824,5.242,10.824,11.601C379.581,566.894,374.679,572.184,368.757,572.184z M368.757,552.235
			c-3.884,0-6.893,3.689-6.893,8.349s3.009,8.349,6.893,8.349c3.834,0,6.844-3.689,6.844-8.349S372.591,552.235,368.757,552.235z"/>
		<path d="M400.501,571.553v-15.58c0-1.457-0.098-1.942-0.34-2.573c-0.34-0.728-1.214-1.165-2.232-1.165
			c-2.233,0-4.611,1.65-8.446,5.873v13.445h-3.641v-21.987h3.641v4.611c1.505-1.699,1.941-2.136,3.01-3.01
			c1.65-1.407,3.834-2.184,5.873-2.184c3.883,0,5.776,1.99,5.776,6.116v16.454H400.501z"/>
		<path d="M419.236,572.184c-0.922,0-1.941-0.097-3.058-0.291c-2.088-0.388-3.01-0.728-5.194-1.845l1.505-3.057
			c0.729,0.388,1.263,0.679,1.65,0.874c1.554,0.728,3.495,1.213,5.048,1.213c2.233,0,3.884-1.213,3.884-2.912
			c0-0.534-0.194-1.165-0.438-1.505c-0.873-1.262-1.893-1.893-5.824-3.495c-4.271-1.796-5.728-3.301-5.728-5.97
			c0-3.834,3.203-6.213,8.349-6.213c0.922,0,1.893,0.097,2.815,0.243c1.65,0.34,2.427,0.631,4.271,1.65l-1.796,2.961
			c-1.407-0.874-2.038-1.165-3.154-1.456c-0.874-0.243-1.699-0.389-2.524-0.389c-2.476,0-4.077,1.117-4.077,2.767
			c0,0.534,0.194,1.02,0.534,1.359c0.874,0.874,1.456,1.213,5.437,2.864c4.659,1.941,5.97,3.446,5.97,6.892
			C426.905,569.806,424.042,572.184,419.236,572.184z"/>
		<path d="M186.665,630.432c-2.523,0-4.223-1.99-4.223-4.902v-14.658h-3.688v-2.136l3.688-0.923v-6.406h3.641v6.406h5.824v3.059
			h-5.824v12.522l0.048,0.971c0.049,0.68,0.049,1.116,0.098,1.359c0.049,0.728,0.485,1.067,1.262,1.067
			c0.922,0,1.65-0.388,3.204-1.553l1.504,2.427C189.626,629.801,188.412,630.432,186.665,630.432z"/>
		<path d="M205.983,630.432c-5.971,0-10.873-5.29-10.873-11.601c0-6.358,4.902-11.601,10.873-11.601
			c5.922,0,10.824,5.242,10.824,11.601C216.808,625.142,211.905,630.432,205.983,630.432z M205.983,610.482
			c-3.884,0-6.893,3.689-6.893,8.349c0,4.66,3.009,8.349,6.893,8.349c3.834,0,6.844-3.688,6.844-8.349
			C212.827,614.172,209.817,610.482,205.983,610.482z"/>
		<path d="M257.288,603.25c-2.427-1.698-4.757-2.427-7.863-2.427c-6.795,0-11.648,5.242-11.648,12.571
			c0,8.058,4.902,13.349,12.426,13.349c2.718,0,4.805-0.438,7.378-1.505l1.116,3.106c-1.941,0.874-2.719,1.165-4.32,1.553
			c-1.602,0.389-2.912,0.534-4.417,0.534c-9.659,0-16.503-6.94-16.503-16.794c0-9.368,6.941-16.455,16.115-16.455
			c2.087,0,4.125,0.34,6.019,1.068c1.407,0.485,2.087,0.874,3.688,1.99L257.288,603.25z"/>
		<path d="M272.142,630.432c-5.971,0-10.873-5.29-10.873-11.601c0-6.358,4.902-11.601,10.873-11.601
			c5.922,0,10.824,5.242,10.824,11.601C282.966,625.142,278.063,630.432,272.142,630.432z M272.142,610.482
			c-3.884,0-6.893,3.689-6.893,8.349c0,4.66,3.009,8.349,6.893,8.349c3.834,0,6.844-3.688,6.844-8.349
			C278.985,614.172,275.976,610.482,272.142,610.482z"/>
		<path d="M303.886,629.801V614.22c0-1.456-0.098-1.941-0.34-2.572c-0.34-0.729-1.214-1.165-2.232-1.165
			c-2.233,0-4.611,1.65-8.446,5.873v13.445h-3.641v-21.988h3.641v4.611c1.505-1.698,1.941-2.136,3.01-3.009
			c1.65-1.408,3.834-2.185,5.873-2.185c3.883,0,5.776,1.99,5.776,6.116v16.454H303.886z"/>
		<path d="M322.622,630.432c-0.922,0-1.941-0.097-3.058-0.291c-2.088-0.389-3.01-0.729-5.194-1.845l1.505-3.058
			c0.729,0.389,1.263,0.68,1.65,0.874c1.554,0.728,3.495,1.213,5.048,1.213c2.233,0,3.884-1.213,3.884-2.912
			c0-0.534-0.194-1.165-0.438-1.505c-0.873-1.262-1.893-1.893-5.824-3.494c-4.271-1.796-5.728-3.301-5.728-5.971
			c0-3.835,3.203-6.213,8.349-6.213c0.922,0,1.893,0.097,2.815,0.243c1.65,0.339,2.427,0.631,4.271,1.649l-1.796,2.961
			c-1.407-0.873-2.038-1.165-3.154-1.456c-0.874-0.242-1.699-0.388-2.524-0.388c-2.476,0-4.077,1.116-4.077,2.767
			c0,0.533,0.194,1.019,0.534,1.358c0.874,0.874,1.456,1.214,5.437,2.864c4.659,1.941,5.97,3.446,5.97,6.893
			C330.291,628.054,327.428,630.432,322.622,630.432z"/>
		<path d="M351.793,629.801v-4.563c-2.572,3.543-5.436,5.242-8.736,5.242c-3.835,0-5.873-2.136-5.873-6.164v-16.504h3.64v15.581
			c0,2.719,0.777,3.835,2.621,3.835c2.33,0,5.825-2.476,8.349-5.971v-13.445h3.689v21.988H351.793z"/>
		<path d="M363.442,629.801v-35.385h3.64v35.385H363.442z"/>
		<path d="M379.702,630.432c-2.523,0-4.223-1.99-4.223-4.902v-14.658h-3.688v-2.136l3.688-0.923v-6.406h3.641v6.406h5.824v3.059
			h-5.824v12.522l0.048,0.971c0.049,0.68,0.049,1.116,0.098,1.359c0.049,0.728,0.485,1.067,1.262,1.067
			c0.922,0,1.65-0.388,3.204-1.553l1.504,2.427C382.663,629.801,381.449,630.432,379.702,630.432z"/>
		<path d="M406.835,630.432c-2.523,0-4.223-1.99-4.223-4.902v-14.658h-3.688v-2.136l3.688-0.923v-6.406h3.641v6.406h5.824v3.059
			h-5.824v12.522l0.048,0.971c0.049,0.68,0.049,1.116,0.098,1.359c0.049,0.728,0.485,1.067,1.262,1.067
			c0.922,0,1.65-0.388,3.204-1.553l1.504,2.427C409.796,629.801,408.582,630.432,406.835,630.432z"/>
		<path d="M431.589,629.801V614.22c0-1.456-0.048-1.941-0.339-2.572c-0.34-0.729-1.165-1.165-2.185-1.165
			c-2.281,0-4.66,1.65-8.445,5.873v13.445h-3.641v-35.385h3.641v18.008c1.504-1.698,1.893-2.136,2.96-3.009
			c1.699-1.408,3.835-2.185,5.922-2.185c3.884,0,5.776,1.99,5.776,6.116v16.454H431.589z"/>
		<path d="M445.132,618.491c0,5.34,2.718,8.592,7.184,8.592c1.941,0,3.349-0.534,5.728-2.185l1.456,2.863
			c-3.252,2.039-5.097,2.67-7.96,2.67c-6.116,0-10.242-4.659-10.242-11.601c0-6.989,4.126-11.601,10.388-11.601
			c5.145,0,8.494,3.641,8.494,9.125v2.136H445.132z M451.441,610.531c-3.058,0-5.193,1.845-6.019,5.242h10.775
			C456.149,612.376,454.451,610.531,451.441,610.531z"/>
		<path d="M132.617,659.36v10.97h11.601v3.398h-11.601v14.318h-3.979v-32.035h18.008v3.349H132.617z"/>
		<path d="M154.702,660.769c-1.311,0-2.378-1.068-2.378-2.379s1.067-2.378,2.378-2.378s2.379,1.067,2.379,2.378
			S156.013,660.769,154.702,660.769z M152.857,688.047v-21.988h3.641v21.988H152.857z"/>
		<path d="M171.788,688.678c-0.922,0-1.941-0.097-3.058-0.291c-2.088-0.389-3.01-0.729-5.194-1.845l1.505-3.058
			c0.729,0.389,1.263,0.68,1.65,0.874c1.554,0.728,3.495,1.213,5.048,1.213c2.233,0,3.884-1.213,3.884-2.912
			c0-0.534-0.194-1.165-0.438-1.505c-0.873-1.262-1.893-1.893-5.824-3.494c-4.271-1.796-5.728-3.301-5.728-5.971
			c0-3.835,3.203-6.213,8.349-6.213c0.922,0,1.893,0.097,2.815,0.243c1.65,0.339,2.427,0.631,4.271,1.649l-1.796,2.961
			c-1.407-0.873-2.038-1.165-3.154-1.456c-0.874-0.242-1.699-0.388-2.524-0.388c-2.476,0-4.077,1.116-4.077,2.767
			c0,0.533,0.194,1.019,0.534,1.358c0.874,0.874,1.456,1.214,5.437,2.864c4.659,1.941,5.97,3.446,5.97,6.893
			C179.457,686.3,176.594,688.678,171.788,688.678z"/>
		<path d="M200.765,688.047v-15.581c0-1.456-0.048-1.941-0.339-2.572c-0.34-0.729-1.165-1.165-2.185-1.165
			c-2.281,0-4.66,1.65-8.445,5.873v13.445h-3.641v-35.385h3.641v18.008c1.504-1.698,1.893-2.136,2.96-3.009
			c1.699-1.408,3.835-2.185,5.922-2.185c3.884,0,5.776,1.99,5.776,6.116v16.454H200.765z"/>
		<path d="M214.308,676.737c0,5.34,2.718,8.592,7.184,8.592c1.941,0,3.349-0.534,5.728-2.185l1.456,2.863
			c-3.252,2.039-5.097,2.67-7.96,2.67c-6.116,0-10.242-4.659-10.242-11.601c0-6.989,4.126-11.601,10.388-11.601
			c5.145,0,8.494,3.641,8.494,9.125v2.136H214.308z M220.617,668.777c-3.058,0-5.193,1.845-6.019,5.242h10.775
			C225.325,670.622,223.627,668.777,220.617,668.777z"/>
		<path d="M245.712,670.039c-0.729-0.631-1.116-0.874-1.554-0.874c-1.358,0-3.106,1.99-5.193,5.776v13.105h-3.641v-21.988h3.641
			v3.98c2.719-3.494,4.077-4.563,5.728-4.563c0.825,0,1.845,0.534,2.815,1.505L245.712,670.039z"/>
		<path d="M280.999,688.047v-15.581c0-1.602-0.049-1.893-0.34-2.572c-0.388-0.729-1.213-1.165-2.232-1.165
			c-2.039,0-4.223,1.359-7.427,4.806l-1.019,1.067v13.445h-3.641v-15.581c0-1.602-0.049-1.893-0.34-2.572
			c-0.389-0.729-1.214-1.165-2.232-1.165c-2.233,0-4.611,1.65-8.446,5.873v13.445h-3.641v-21.988h3.641v4.611
			c1.505-1.698,1.941-2.136,3.01-3.009c1.65-1.408,3.834-2.185,5.873-2.185c3.641,0,5.484,1.699,5.728,5.242
			c1.553-1.747,1.99-2.185,3.058-3.058c1.65-1.408,3.835-2.185,5.873-2.185c3.883,0,5.776,1.99,5.776,6.116v16.454H280.999z"/>
		<path d="M308.374,688.678c-3.009-0.194-4.077-0.971-4.271-3.058c-1.116,0.971-1.602,1.359-2.329,1.747
			c-1.359,0.776-3.106,1.262-4.66,1.262c-3.543,0-5.873-2.281-5.873-5.775c0-3.204,1.699-5.34,4.902-6.116l7.62-1.796v-3.979
			c0-1.797-1.358-2.719-4.174-2.719c-2.281,0-3.35,0.631-3.35,1.894c0,0.242,0.049,0.437,0.194,0.825l-3.688,0.776
			c-0.34-0.583-0.389-0.825-0.389-1.359c0-2.912,3.204-4.902,7.912-4.902c4.417,0,7.184,2.087,7.184,5.485v11.892v1.602
			c0.097,0.582,0.68,0.971,1.796,1.165L308.374,688.678z M303.763,677.999l-8.251,2.136c-0.534,1.02-0.631,1.505-0.631,2.379
			c0,1.747,1.165,2.863,2.961,2.863c1.649,0,2.767-0.533,5.921-2.814V677.999z"/>
		<path d="M330.557,688.047v-15.581c0-1.456-0.098-1.941-0.34-2.572c-0.34-0.729-1.214-1.165-2.232-1.165
			c-2.233,0-4.611,1.65-8.446,5.873v13.445h-3.641v-21.988h3.641v4.611c1.505-1.698,1.941-2.136,3.01-3.009
			c1.65-1.408,3.834-2.185,5.873-2.185c3.883,0,5.776,1.99,5.776,6.116v16.454H330.557z"/>
		<path d="M346.332,661.06c-0.388,1.505-0.922,2.67-2.232,5.048l-0.631,1.214h-2.136c0.485-1.116,0.631-1.456,1.067-2.767
			c0.437-1.408,0.534-1.796,0.825-3.059l-2.087-5.193c1.02-0.68,1.698-0.874,2.815-0.874c1.844,0,2.767,1.02,2.767,3.107
			C346.721,659.313,346.623,660.186,346.332,661.06z"/>
		<path d="M361.524,688.678c-0.922,0-1.941-0.097-3.058-0.291c-2.088-0.389-3.01-0.729-5.194-1.845l1.505-3.058
			c0.729,0.389,1.263,0.68,1.65,0.874c1.554,0.728,3.495,1.213,5.048,1.213c2.233,0,3.884-1.213,3.884-2.912
			c0-0.534-0.194-1.165-0.438-1.505c-0.873-1.262-1.893-1.893-5.824-3.494c-4.271-1.796-5.728-3.301-5.728-5.971
			c0-3.835,3.203-6.213,8.349-6.213c0.922,0,1.893,0.097,2.815,0.243c1.65,0.339,2.427,0.631,4.271,1.649l-1.796,2.961
			c-1.407-0.873-2.038-1.165-3.154-1.456c-0.874-0.242-1.699-0.388-2.524-0.388c-2.476,0-4.077,1.116-4.077,2.767
			c0,0.533,0.194,1.019,0.534,1.358c0.874,0.874,1.456,1.214,5.437,2.864c4.659,1.941,5.97,3.446,5.97,6.893
			C369.193,686.3,366.33,688.678,361.524,688.678z"/>
		<path d="M402.782,688.678c-9.319,0-16.115-6.989-16.115-16.648c0-9.61,6.796-16.601,16.115-16.601s16.065,6.99,16.065,16.601
			C418.848,681.688,412.102,688.678,402.782,688.678z M402.782,658.924c-6.456,0-11.747,5.922-11.747,13.105
			c0,7.232,5.291,13.154,11.747,13.154c6.406,0,11.697-5.922,11.697-13.154C414.479,664.846,409.188,658.924,402.782,658.924z"/>
		<path d="M435.837,670.039c-0.729-0.631-1.116-0.874-1.554-0.874c-1.358,0-3.106,1.99-5.193,5.776v13.105h-3.641v-21.988h3.641
			v3.98c2.719-3.494,4.077-4.563,5.728-4.563c0.825,0,1.845,0.534,2.815,1.505L435.837,670.039z"/>
		<path d="M457.388,688.678c-3.009-0.194-4.077-0.971-4.271-3.058c-1.116,0.971-1.602,1.359-2.329,1.747
			c-1.359,0.776-3.106,1.262-4.66,1.262c-3.543,0-5.873-2.281-5.873-5.775c0-3.204,1.699-5.34,4.902-6.116l7.62-1.796v-3.979
			c0-1.797-1.358-2.719-4.174-2.719c-2.281,0-3.35,0.631-3.35,1.894c0,0.242,0.049,0.437,0.194,0.825l-3.688,0.776
			c-0.34-0.583-0.389-0.825-0.389-1.359c0-2.912,3.204-4.902,7.912-4.902c4.417,0,7.184,2.087,7.184,5.485v11.892v1.602
			c0.097,0.582,0.68,0.971,1.796,1.165L457.388,688.678z M452.776,677.999l-8.251,2.136c-0.534,1.02-0.631,1.505-0.631,2.379
			c0,1.747,1.165,2.863,2.961,2.863c1.649,0,2.767-0.533,5.921-2.814V677.999z"/>
		<path d="M480.201,687.173c-1.796,0.971-3.932,1.505-6.116,1.505c-6.698,0-11.261-4.611-11.261-11.357
			c0-6.941,4.757-11.844,11.504-11.844c1.116,0,2.185,0.146,3.252,0.437c1.456,0.389,2.136,0.729,3.641,1.796l-2.088,2.961
			c-1.698-1.407-2.96-1.893-4.95-1.893c-4.417,0-7.378,3.397-7.378,8.349c0,5.048,2.961,8.203,7.669,8.203
			c2.136,0,3.495-0.485,5.291-1.845l1.893,2.863C481.026,686.736,480.541,687.027,480.201,687.173z"/>
		<path d="M486.269,688.047v-35.385h3.64v35.385H486.269z"/>
		<path d="M499.811,676.737c0,5.34,2.718,8.592,7.184,8.592c1.941,0,3.349-0.534,5.728-2.185l1.456,2.863
			c-3.252,2.039-5.097,2.67-7.96,2.67c-6.116,0-10.242-4.659-10.242-11.601c0-6.989,4.126-11.601,10.388-11.601
			c5.145,0,8.494,3.641,8.494,9.125v2.136H499.811z M506.12,668.777c-3.058,0-5.193,1.845-6.019,5.242h10.775
			C510.828,670.622,509.13,668.777,506.12,668.777z"/>
		<path d="M307.842,746.876c-1.554,0-2.767-1.213-2.767-2.767c0-1.504,1.213-2.718,2.767-2.718c1.504,0,2.718,1.214,2.718,2.718
			C310.56,745.663,309.346,746.876,307.842,746.876z"/>
		<path d="M320.024,746.876c-1.554,0-2.767-1.213-2.767-2.767c0-1.504,1.213-2.718,2.767-2.718c1.504,0,2.718,1.214,2.718,2.718
			C322.742,745.663,321.528,746.876,320.024,746.876z"/>
		<path d="M332.208,746.876c-1.554,0-2.767-1.213-2.767-2.767c0-1.504,1.213-2.718,2.767-2.718c1.504,0,2.718,1.214,2.718,2.718
			C334.926,745.663,333.712,746.876,332.208,746.876z"/>
	</g>
</g>
</svg>
