<?xml version="1.0" encoding="utf-8"?>
<!-- Generator: Adobe Illustrator 15.0.0, SVG Export Plug-In . SVG Version: 6.00 Build 0)  -->
<!DOCTYPE svg PUBLIC "-//W3C//DTD SVG 1.1//EN" "http://www.w3.org/Graphics/SVG/1.1/DTD/svg11.dtd">
<svg version="1.1" id="Слой_1" xmlns="http://www.w3.org/2000/svg" xmlns:xlink="http://www.w3.org/1999/xlink" x="0px" y="0px"
	 width="87px" height="143px" viewBox="0 0 87 143" enable-background="new 0 0 87 143" xml:space="preserve">
<g>
	<g>
		<path fill="#4E4E4E" d="M70.732,71.938H16.268c-8.763,0-15.891-7.128-15.891-15.892c0-7.332,4.947-13.568,11.838-15.367
			c-0.083-0.791-0.13-1.582-0.13-2.367c0-12.141,9.877-22.018,22.018-22.018c7.164,0,13.906,3.549,18.007,9.371
			c1.629-0.46,3.307-0.69,5.007-0.69c9.309,0,17.088,6.867,18.397,15.918c6.529,2.056,11.109,8.18,11.109,15.153
			C86.623,64.811,79.495,71.938,70.732,71.938z M34.103,20.846c-9.628,0-17.468,7.836-17.468,17.467c0,1.229,0.137,2.48,0.409,3.713
			l0.545,2.479l-2.53,0.27c-5.776,0.613-10.132,5.46-10.132,11.272c0,6.254,5.09,11.341,11.341,11.341h54.465
			c6.251,0,11.341-5.087,11.341-11.341c0-5.389-3.834-10.063-9.107-11.118l-1.736-0.344l-0.095-1.766
			c-0.396-7.454-6.559-13.294-14.019-13.294c-1.754,0-3.479,0.329-5.138,0.979l-1.813,0.711l-0.978-1.683
			C46.06,24.176,40.282,20.846,34.103,20.846z"/>
	</g>
	<g>
		<text transform="matrix(1 0 0 1 6.0591 136.3984)" fill="#4E4E4E" font-family="'ScalaSans'" font-size="25.7864">Clouds</text>
	</g>
</g>
</svg>
