<?xml version="1.0" encoding="utf-8"?>
<!-- Generator: Adobe Illustrator 15.0.0, SVG Export Plug-In . SVG Version: 6.00 Build 0)  -->
<!DOCTYPE svg PUBLIC "-//W3C//DTD SVG 1.1//EN" "http://www.w3.org/Graphics/SVG/1.1/DTD/svg11.dtd">
<svg version="1.1" id="Слой_1" xmlns="http://www.w3.org/2000/svg" xmlns:xlink="http://www.w3.org/1999/xlink" x="0px" y="0px"
	 width="640px" height="345px" viewBox="0 0 640 345" enable-background="new 0 0 640 345" xml:space="preserve">
<g>
	<g>
		<g>
			<rect x="325.074" y="52.74" fill="#4E4E4E" width="5.203" height="240.43"/>
		</g>
		<g>
			<rect x="206.767" y="170.353" fill="#4E4E4E" width="241.122" height="5.202"/>
		</g>
		<g>
			<path fill="#4E4E4E" d="M327.674,298.369c-69.151,0-125.417-56.26-125.417-125.422c0-69.146,56.266-125.409,125.417-125.409
				c69.154,0,125.418,56.263,125.418,125.409C453.092,242.109,396.828,298.369,327.674,298.369z M327.674,52.74
				c-66.286,0-120.214,53.928-120.214,120.207c0,66.297,53.928,120.223,120.214,120.223c66.287,0,120.215-53.926,120.215-120.223
				C447.889,106.668,393.961,52.74,327.674,52.74z"/>
		</g>
		<g>
			<path fill="#FFFFFF" d="M422.758,172.947c0,52.527-42.566,95.097-95.084,95.097c-52.51,0-95.08-42.569-95.08-95.097
				c0-52.512,42.57-95.081,95.08-95.081C380.191,77.866,422.758,120.436,422.758,172.947z"/>
			<path fill="#4E4E4E" d="M327.674,270.645c-53.867,0-97.681-43.831-97.681-97.697c0-53.859,43.813-97.683,97.681-97.683
				c53.861,0,97.686,43.823,97.686,97.683C425.359,226.813,381.535,270.645,327.674,270.645z M327.674,80.464
				c-50.996,0-92.481,41.488-92.481,92.483c0,51.004,41.485,92.495,92.481,92.495c50.998,0,92.486-41.491,92.486-92.495
				C420.16,121.952,378.672,80.464,327.674,80.464z"/>
		</g>
		<g>
			<g>
				<g>
					<path fill="#4E4E4E" d="M471.055,186.67v-27.437h15.422v2.871h-12.014v9.148h9.932v2.865h-9.932v9.688h12.391v2.864H471.055z"
						/>
				</g>
			</g>
			<g>
				<path fill="#4E4E4E" d="M178.009,186.942h-2.122l-4.95-12.97l-4.986,12.97h-1.83l-10.974-27.981h3.652l8.405,22.664
					l4.319-11.272l-4.319-11.392h3.113l2.747,7.19l2.787-7.19h2.823l-4.2,10.894l4.494,11.723l8.067-22.616h3.365L178.009,186.942z"
					/>
			</g>
		</g>
		<g>
			<g>
				<path fill="#4E4E4E" d="M334.973,27.786L321.125,6.379c-0.127-0.208-0.335-0.539-0.539-0.957
					c-0.169-0.29-0.287-0.456-0.329-0.619c-0.175-0.29-0.251-0.501-0.42-1.043v23.78h-3.407V0.104h4.446l13.597,20.91
					c0.125,0.16,0.252,0.415,0.373,0.664c0.166,0.417,0.207,0.456,0.498,1.247c0.041,0.083,0.082,0.249,0.168,0.418V0.104h3.408
					v27.683H334.973z"/>
			</g>
			<g>
				<path fill="#4E4E4E" d="M335.035,321.575c-1.41-0.833-1.996-1.12-2.867-1.416c-1.043-0.332-2.705-0.578-3.783-0.578
					c-3.123,0-5.242,1.537-5.242,3.866c0,2.038,1.207,3.075,6.775,6.025c1.877,1.002,3.324,1.914,4.332,2.788
					c1.322,1.123,2.115,2.992,2.115,4.986c0,4.698-3.492,7.649-9.018,7.649c-1.875,0-3.623-0.332-5.078-0.913
					c-1.033-0.414-1.746-0.832-3.535-2.038l1.748-2.704c1.541,1.039,2.207,1.419,3.162,1.786c1.203,0.465,2.533,0.711,3.951,0.711
					c3.238,0,5.191-1.534,5.191-4.156c0-0.791-0.121-1.455-0.41-1.952c-0.461-0.836-1.252-1.624-2.334-2.246
					c-0.453-0.249-1.994-1.037-4.57-2.456c-4.115-2.201-5.861-4.364-5.861-7.188c0-4.369,3.615-7.278,9.063-7.278
					c1.574,0,3.201,0.207,4.617,0.669c1.119,0.367,1.783,0.708,3.326,1.62L335.035,321.575z"/>
			</g>
		</g>
	</g>
	<g>
		<g>
			<polygon fill="#4E4E4E" points="301.53,172.954 327.672,172.954 353.822,172.954 327.672,99.265 			"/>
			<g>
				<polygon fill="none" points="308.015,177.831 327.672,233.234 308.015,177.831 				"/>
				<polygon fill="#4E4E4E" points="327.672,233.234 349.064,172.954 353.82,172.954 327.672,246.646 301.53,172.954 
					306.288,172.954 				"/>
			</g>
		</g>
		<path d="M336.889,172.954c0,5.086-4.123,9.208-9.211,9.208c-5.08,0-9.21-4.122-9.21-9.208c0-5.09,4.13-9.211,9.21-9.211
			C332.766,163.743,336.889,167.864,336.889,172.954z"/>
	</g>
</g>
</svg>
