<?xml version="1.0" encoding="utf-8"?>
<!-- Generator: Adobe Illustrator 15.0.0, SVG Export Plug-In . SVG Version: 6.00 Build 0)  -->
<!DOCTYPE svg PUBLIC "-//W3C//DTD SVG 1.1//EN" "http://www.w3.org/Graphics/SVG/1.1/DTD/svg11.dtd">
<svg version="1.1" id="Слой_1" xmlns="http://www.w3.org/2000/svg" xmlns:xlink="http://www.w3.org/1999/xlink" x="0px" y="0px"
	 width="86px" height="143px" viewBox="0 0 86 143" enable-background="new 0 0 86 143" xml:space="preserve">
<g>
	<g>
		<g>
			<path fill="#4E4E4E" d="M11.946,43.179c0-0.854,0.059-1.691,0.13-2.527H0.001v5.061h12.075
				C12.005,44.873,11.946,44.035,11.946,43.179z"/>
			<path fill="#4E4E4E" d="M43,12.131c0.854,0,1.694,0.06,2.523,0.128V0.188H40.47v12.07C41.306,12.19,42.146,12.131,43,12.131z"/>
			<path fill="#4E4E4E" d="M73.924,40.651c0.07,0.836,0.13,1.674,0.13,2.527c0,0.856-0.06,1.694-0.13,2.533h12.075v-5.061H73.924z"
				/>
			<path fill="#4E4E4E" d="M43,74.235c-0.854,0-1.694-0.059-2.53-0.13v12.072h5.054V74.105C44.694,74.177,43.854,74.235,43,74.235z"
				/>
		</g>
		<g>
			<path fill="#4E4E4E" d="M43,69.6c-14.564,0-26.415-11.851-26.415-26.418c0-14.561,11.851-26.411,26.415-26.411
				c14.563,0,26.414,11.851,26.414,26.411C69.414,57.749,57.563,69.6,43,69.6z M43,21.824c-11.773,0-21.36,9.581-21.36,21.357
				c0,11.779,9.587,21.36,21.36,21.36s21.354-9.581,21.354-21.36C64.354,31.405,54.773,21.824,43,21.824z"/>
		</g>
		<g>
			<path fill="#4E4E4E" d="M66.659,23.099l8.526-8.529l-3.573-3.576l-8.532,8.529C64.366,20.616,65.563,21.813,66.659,23.099z"/>
			<path fill="#4E4E4E" d="M22.913,19.522l-8.526-8.529l-3.578,3.576l8.532,8.529C20.437,21.813,21.628,20.616,22.913,19.522z"/>
			<path fill="#4E4E4E" d="M63.08,66.841l8.532,8.532l3.573-3.578l-8.526-8.529C65.563,64.551,64.366,65.745,63.08,66.841z"/>
			<path fill="#4E4E4E" d="M19.341,63.266l-8.532,8.529l3.578,3.578l8.526-8.532C21.628,65.745,20.437,64.551,19.341,63.266z"/>
		</g>
	</g>
	<g>
		<text transform="matrix(1 0 0 1 22.4731 136.21)" fill="#4E4E4E" font-family="'ScalaSans'" font-size="25.7864">Day</text>
	</g>
</g>
</svg>
