<?xml version="1.0" encoding="utf-8"?>
<!-- Generator: Adobe Illustrator 15.0.0, SVG Export Plug-In . SVG Version: 6.00 Build 0)  -->
<!DOCTYPE svg PUBLIC "-//W3C//DTD SVG 1.1//EN" "http://www.w3.org/Graphics/SVG/1.1/DTD/svg11.dtd">
<svg version="1.1" id="Слой_1" xmlns="http://www.w3.org/2000/svg" xmlns:xlink="http://www.w3.org/1999/xlink" x="0px" y="0px"
	 width="86px" height="143px" viewBox="0 0 86 143" enable-background="new 0 0 86 143" xml:space="preserve">
<g>
	<g>
		<g>
			<g>
				<path fill="#4E4E4E" d="M43.001,22.442c0.853,0,1.692,0.057,2.524,0.128V10.497h-5.054V22.57
					C41.307,22.499,42.148,22.442,43.001,22.442z"/>
			</g>
			<g>
				<g>
					<rect x="0.002" y="50.961" fill="#4E4E4E" width="85.996" height="5.057"/>
					<path fill="#4E4E4E" d="M43.001,32.133c10.917,0,19.932,8.242,21.192,18.828h5.092c-1.279-13.38-12.576-23.882-26.284-23.882
						c-13.711,0-25.008,10.502-26.287,23.882h5.093C23.066,40.375,32.082,32.133,43.001,32.133z"/>
				</g>
				<rect x="0.002" y="61.075" fill="#4E4E4E" width="85.996" height="5.057"/>
				<rect x="0.002" y="71.189" fill="#4E4E4E" width="85.996" height="5.057"/>
				<path fill="#4E4E4E" d="M43.001,30.794c-12.473,0-22.768,9.415-24.208,21.506h48.412C65.77,40.209,55.471,30.794,43.001,30.794z
					"/>
			</g>
		</g>
		<g>
			<path fill="#4E4E4E" d="M66.658,33.41l8.531-8.532l-3.576-3.576l-8.529,8.529C64.371,30.925,65.564,32.121,66.658,33.41z"/>
			<path fill="#4E4E4E" d="M22.917,29.831l-8.532-8.529l-3.575,3.576l8.532,8.532C20.435,32.121,21.629,30.925,22.917,29.831z"/>
		</g>
	</g>
	<g>
		<text transform="matrix(1 0 0 1 0.4653 136.3984)" fill="#4E4E4E" font-family="'ScalaSans'" font-size="25.7864">Evening</text>
	</g>
</g>
</svg>
