<?xml version="1.0" encoding="utf-8"?>
<!-- Generator: Adobe Illustrator 15.0.0, SVG Export Plug-In . SVG Version: 6.00 Build 0)  -->
<!DOCTYPE svg PUBLIC "-//W3C//DTD SVG 1.1//EN" "http://www.w3.org/Graphics/SVG/1.1/DTD/svg11.dtd">
<svg version="1.1" id="Слой_1" xmlns="http://www.w3.org/2000/svg" xmlns:xlink="http://www.w3.org/1999/xlink" x="0px" y="0px"
	 width="93px" height="133px" viewBox="0 0 93 133" enable-background="new 0 0 93 133" xml:space="preserve">
<g>
	<g>
		<text transform="matrix(1 0 0 1 0.1885 126.1504)" fill="#4E4E4E" font-family="'ScalaSans'" font-size="25.7864">Morning</text>
	</g>
	<g>
		<g>
			<path fill="#4E4E4E" d="M15.446,43.236c0-0.853,0.059-1.683,0.13-2.523H3.504v5.06h12.073
				C15.505,44.931,15.446,44.095,15.446,43.236z"/>
			<path fill="#4E4E4E" d="M46.503,12.194c0.854,0,1.691,0.054,2.524,0.125V0.249h-5.055v12.07
				C44.809,12.248,45.649,12.194,46.503,12.194z"/>
			<path fill="#4E4E4E" d="M77.427,40.712c0.067,0.841,0.13,1.671,0.13,2.523c0,0.859-0.063,1.695-0.13,2.536h12.072v-5.06H77.427z"
				/>
		</g>
		<g>
			<path fill="#4E4E4E" d="M46.503,16.828c-14.564,0-26.415,11.851-26.415,26.414c0,0.854,0.05,1.695,0.127,2.53
				c0.166,1.742,0.504,3.425,0.996,5.055h5.35c-0.613-1.606-1.045-3.295-1.25-5.055c-0.101-0.829-0.166-1.677-0.166-2.53
				c0-11.773,9.581-21.36,21.357-21.36c11.773,0,21.354,9.587,21.354,21.36c0,0.854-0.065,1.701-0.166,2.53
				c-0.204,1.76-0.637,3.448-1.25,5.055h5.351c0.491-1.63,0.829-3.313,0.992-5.055c0.083-0.835,0.13-1.677,0.13-2.53
				C72.914,28.678,61.064,16.828,46.503,16.828z"/>
			<rect x="3.504" y="50.827" fill="#4E4E4E" width="85.995" height="5.054"/>
			<rect x="3.504" y="60.941" fill="#4E4E4E" width="85.995" height="5.054"/>
		</g>
		<g>
			<path fill="#4E4E4E" d="M70.159,23.162l8.532-8.532l-3.576-3.579l-8.529,8.532C67.872,20.673,69.066,21.87,70.159,23.162z"/>
			<path fill="#4E4E4E" d="M26.419,19.583l-8.532-8.532l-3.576,3.579l8.532,8.532C23.937,21.87,25.131,20.673,26.419,19.583z"/>
		</g>
	</g>
</g>
<path fill="#4E4E4E" d="M69.337,37.23c0,4.978,1.14,16.123,1.14,16.123s-18.229,0.961-24.26,0.961c-6.837,0-23.121,0-23.121,0
	s0-12.701,0-17.084c0-9.436,10.352-17.084,23.121-17.084C58.985,20.146,69.337,27.795,69.337,37.23z"/>
</svg>
