<?xml version="1.0" encoding="utf-8"?>
<!-- Generator: Adobe Illustrator 15.0.0, SVG Export Plug-In . SVG Version: 6.00 Build 0)  -->
<!DOCTYPE svg PUBLIC "-//W3C//DTD SVG 1.1//EN" "http://www.w3.org/Graphics/SVG/1.1/DTD/svg11.dtd">
<svg version="1.1" id="Слой_1" xmlns="http://www.w3.org/2000/svg" xmlns:xlink="http://www.w3.org/1999/xlink" x="0px" y="0px"
	 width="69px" height="143px" viewBox="0 0 69 143" enable-background="new 0 0 69 143" xml:space="preserve">
<g>
	<g>
		<path fill="#FFFFFF" d="M52.051,57.609c-14.381,0-26.05-11.676-26.05-26.059c0-8.375,3.97-15.812,10.108-20.578
			c-0.367-0.012-0.734-0.057-1.111-0.057c-17.583,0-31.848,14.262-31.848,31.848c0,17.583,14.265,31.851,31.848,31.851
			c13.492,0,24.996-8.405,29.637-20.25C60.902,56.427,56.621,57.609,52.051,57.609z"/>
		<g>
			<path fill="#4E4E4E" d="M34.533,77.493c-18.815,0-34.123-15.304-34.123-34.123S15.718,9.248,34.533,9.248
				c0.272,0,0.539,0.018,0.805,0.036l6.682,0.225l-4.98,3.869c-5.865,4.551-9.228,11.4-9.228,18.777
				c0,13.118,10.665,23.783,23.774,23.783c4.008,0,7.979-1.025,11.486-2.956l5.518-3.052l-2.301,5.872
				C61.125,68.979,48.658,77.493,34.533,77.493z M29.698,14.189C15.683,16.506,4.961,28.712,4.961,43.371
				c0,16.307,13.267,29.574,29.572,29.574c10.244,0,19.479-5.167,24.844-13.552c-2.527,0.724-5.152,1.097-7.791,1.097
				c-15.619,0-28.325-12.71-28.325-28.334C23.261,25.5,25.554,19.208,29.698,14.189z"/>
		</g>
	</g>
	<g>
		<text transform="matrix(1 0 0 1 4.0977 136.3994)" fill="#4E4E4E" font-family="'ScalaSans'" font-size="25.7864">Night</text>
	</g>
</g>
</svg>
