<?xml version="1.0" encoding="utf-8"?>
<!-- Generator: Adobe Illustrator 15.0.0, SVG Export Plug-In . SVG Version: 6.00 Build 0)  -->
<!DOCTYPE svg PUBLIC "-//W3C//DTD SVG 1.1//EN" "http://www.w3.org/Graphics/SVG/1.1/DTD/svg11.dtd">
<svg version="1.1" id="Слой_1" xmlns="http://www.w3.org/2000/svg" xmlns:xlink="http://www.w3.org/1999/xlink" x="0px" y="0px"
	 width="118px" height="32px" viewBox="0 0 118 32" enable-background="new 0 0 118 32" xml:space="preserve">
<g>
	<path fill="#4E4E4E" d="M7.886,20.926c-1.104,0-1.868-0.084-4.331-0.34v10.617H0.072V3.175h8.79c3.397,0,5.266,0.595,6.837,2.209
		c1.444,1.485,2.166,3.439,2.166,6.072C17.865,17.316,14.043,20.926,7.886,20.926z M12.685,7.294
		c-0.85-0.849-2.081-1.188-4.332-1.188H3.555v11.55c1.953,0.213,2.76,0.254,3.736,0.254c1.571,0,2.718-0.17,3.652-0.551
		c2.038-0.85,3.313-3.058,3.313-5.691C14.256,9.842,13.703,8.314,12.685,7.294z"/>
	<path fill="#4E4E4E" d="M31.797,15.448c-0.637-0.552-0.977-0.764-1.358-0.764c-1.189,0-2.718,1.74-4.544,5.052v11.467H22.71V11.966
		h3.185v3.481c2.378-3.058,3.567-3.991,5.011-3.991c0.722,0,1.614,0.467,2.463,1.316L31.797,15.448z"/>
	<path fill="#4E4E4E" d="M38.551,21.309c0,4.67,2.378,7.516,6.285,7.516c1.698,0,2.93-0.467,5.011-1.91l1.273,2.506
		c-2.845,1.783-4.458,2.334-6.964,2.334c-5.351,0-8.96-4.076-8.96-10.148c0-6.115,3.609-10.149,9.087-10.149
		c4.502,0,7.432,3.185,7.432,7.983v1.869H38.551z M44.071,14.344c-2.675,0-4.544,1.613-5.266,4.585h9.428
		C48.19,15.958,46.704,14.344,44.071,14.344z"/>
	<path fill="#4E4E4E" d="M69.511,31.203v-2.422c-1.698,1.912-3.949,2.973-6.37,2.973c-4.713,0-8.025-3.949-8.025-9.639
		c0-6.2,4.119-10.659,9.81-10.659c2.038,0,3.354,0.382,4.586,1.316V0.246h3.228v30.958H69.511z M69.511,18.676
		c0-1.486-0.085-1.912-0.382-2.548c-0.595-1.062-1.911-1.613-3.864-1.613c-4.077,0-6.71,2.929-6.71,7.558
		c0,3.865,2.166,6.668,5.139,6.668c1.146,0,2.548-0.51,3.736-1.316c0.723-0.553,1.189-0.977,2.081-2.082V18.676z"/>
	<path fill="#4E4E4E" d="M81.446,7.337c-1.146,0-2.081-0.935-2.081-2.081s0.935-2.081,2.081-2.081s2.081,0.935,2.081,2.081
		S82.593,7.337,81.446,7.337z M79.833,31.203V11.966h3.185v19.237H79.833z"/>
	<path fill="#4E4E4E" d="M103.699,30.438c-1.571,0.85-3.439,1.316-5.351,1.316c-5.86,0-9.852-4.033-9.852-9.936
		c0-6.073,4.161-10.362,10.064-10.362c0.977,0,1.91,0.127,2.845,0.382c1.274,0.34,1.868,0.637,3.185,1.571L102.766,16
		c-1.486-1.231-2.591-1.656-4.332-1.656c-3.864,0-6.454,2.972-6.454,7.304c0,4.416,2.59,7.176,6.709,7.176
		c1.868,0,3.058-0.424,4.629-1.613l1.656,2.506C104.421,30.057,103.997,30.311,103.699,30.438z"/>
	<path fill="#4E4E4E" d="M113.087,31.754c-2.208,0-3.694-1.74-3.694-4.289V14.641h-3.228v-1.868l3.228-0.807V6.361h3.185v5.605
		h5.097v2.675h-5.097v10.957l0.043,0.85c0.042,0.594,0.042,0.977,0.085,1.188c0.042,0.639,0.425,0.936,1.104,0.936
		c0.808,0,1.444-0.34,2.803-1.359l1.316,2.123C115.678,31.203,114.616,31.754,113.087,31.754z"/>
</g>
</svg>
