<?xml version="1.0" encoding="utf-8"?>
<!-- Generator: Adobe Illustrator 15.0.0, SVG Export Plug-In . SVG Version: 6.00 Build 0)  -->
<!DOCTYPE svg PUBLIC "-//W3C//DTD SVG 1.1//EN" "http://www.w3.org/Graphics/SVG/1.1/DTD/svg11.dtd">
<svg version="1.1" id="Слой_1" xmlns="http://www.w3.org/2000/svg" xmlns:xlink="http://www.w3.org/1999/xlink" x="0px" y="0px"
	 width="120px" height="32px" viewBox="0 0 120 32" enable-background="new 0 0 120 32" xml:space="preserve">
<g>
	<path fill="#4E4E4E" d="M16.678,19.313c-1.996,1.699-4.459,2.42-8.281,2.42c-1.062,0-1.656-0.041-2.59-0.127v9.598H0.456V3.175
		h9.597c3.652,0,5.69,0.638,7.432,2.293c1.571,1.571,2.378,3.695,2.378,6.285C19.862,14.854,18.758,17.529,16.678,19.313z
		 M9.543,7.719H5.807v9.343l0.679,0.041h0.68c0.595,0.043,0.977,0.043,1.189,0.043c4.161,0,5.987-1.529,5.987-4.968
		C14.342,9.121,12.855,7.719,9.543,7.719z"/>
	<path fill="#4E4E4E" d="M33.242,17.486c-0.552-0.424-0.977-0.594-1.528-0.594c-0.807,0-1.699,0.551-2.463,1.487
		c-0.935,1.146-1.359,2.293-1.359,3.779v9.045h-5.053V11.457h4.373l0.213,4.331c1.911-3.354,3.143-4.629,4.671-4.629
		c1.062,0,1.953,0.468,2.761,1.401L33.242,17.486z"/>
	<path fill="#4E4E4E" d="M51.589,30.354c-2.08,0.934-4.204,1.4-6.497,1.4c-5.86,0-9.555-3.863-9.555-9.895
		c0-6.242,4.247-10.956,9.895-10.956c4.884,0,8.28,3.695,8.28,9.045v2.166H40.633c0.085,1.656,0.213,2.336,0.68,3.143
		c0.85,1.443,2.548,2.377,4.416,2.377c0.765,0,1.529-0.084,2.336-0.34c1.189-0.338,1.953-0.721,3.779-1.867l1.868,3.863
		C52.778,29.801,52.057,30.141,51.589,30.354z M45.092,14.726c-2.251,0-3.779,1.529-4.204,4.204h7.729
		C48.489,15.916,47.47,14.726,45.092,14.726z"/>
	<path fill="#4E4E4E" d="M69.258,31.203v-2.676c-0.722,1.146-1.062,1.529-1.996,2.123c-1.146,0.723-2.378,1.104-3.694,1.104
		c-4.672,0-8.111-4.16-8.111-9.852c0-6.115,4.205-11.041,9.428-11.041c0.552,0,1.146,0.042,1.741,0.212
		c1.062,0.213,1.528,0.425,2.633,1.189V0.246h5.054v30.958H69.258z M69.258,19.396c0-1.104-0.127-2.123-0.255-2.547
		c-0.34-1.062-1.741-1.826-3.313-1.826c-2.803,0-4.883,2.76-4.883,6.499c0,3.566,1.656,6.072,4.076,6.072
		c1.571,0,3.143-1.063,4.374-2.973V19.396z"/>
	<path fill="#4E4E4E" d="M82.256,7.804c-1.571,0-2.888-1.528-2.888-3.439s1.316-3.439,2.888-3.439s2.846,1.528,2.846,3.439
		S83.827,7.804,82.256,7.804z M79.708,31.203V11.457h5.054v19.747H79.708z"/>
	<path fill="#4E4E4E" d="M104.339,30.607c-1.826,0.766-3.821,1.146-5.775,1.146c-6.114,0-10.063-4.033-10.063-10.232
		c0-6.371,4.204-10.66,10.488-10.66c1.104,0,2.166,0.127,3.228,0.34c1.444,0.34,2.123,0.637,3.779,1.613l-2.42,3.864
		c-1.486-1.146-2.464-1.528-3.992-1.528c-3.354,0-5.732,2.632-5.732,6.328c0,3.523,2.123,5.945,5.181,5.945
		c1.698,0,2.93-0.426,5.096-1.699l1.868,4.119C105.273,30.184,104.722,30.438,104.339,30.607z"/>
	<path fill="#4E4E4E" d="M117.675,30.438c-1.486,0.85-3.015,1.316-4.416,1.316c-2.633,0-3.864-1.357-3.864-4.289V15.193h-2.931
		v-3.227l2.931-0.51V5.553h4.799v5.903h4.289v3.736h-4.289v8.792c0,2.207,0.212,2.844,1.019,2.844c0.595,0,1.316-0.297,2.718-1.23
		l1.614,3.693C118.864,29.717,118.228,30.098,117.675,30.438z"/>
</g>
</svg>
