<?xml version="1.0" encoding="utf-8"?>
<!-- Generator: Adobe Illustrator 15.0.0, SVG Export Plug-In . SVG Version: 6.00 Build 0)  -->
<!DOCTYPE svg PUBLIC "-//W3C//DTD SVG 1.1//EN" "http://www.w3.org/Graphics/SVG/1.1/DTD/svg11.dtd">
<svg version="1.1" id="Ğ¡Ğ»Ğ¾Ğ¹_1" xmlns="http://www.w3.org/2000/svg" xmlns:xlink="http://www.w3.org/1999/xlink" x="0px" y="0px"
	 width="87px" height="143px" viewBox="0 0 87 143" enable-background="new 0 0 87 143" xml:space="preserve">
<g>
	<g>
		<g>
			<polygon fill="#4E4E4E" points="20.363,44.235 31.822,86.997 36.882,86.997 25.422,44.235 			"/>
			<polygon fill="#4E4E4E" points="30.477,44.235 39.448,77.713 44.508,77.713 35.537,44.235 			"/>
			<polygon fill="#4E4E4E" points="40.591,44.235 52.051,86.997 57.111,86.997 45.65,44.235 			"/>
			<polygon fill="#4E4E4E" points="55.766,44.235 50.705,44.235 59.676,77.713 64.736,77.713 			"/>
			<polygon fill="#4E4E4E" points="60.82,44.235 72.279,86.997 77.34,86.997 65.881,44.235 			"/>
		</g>
		<path fill="#FFFFFF" d="M73.41,27.639c-0.461-8.609-7.572-15.447-16.293-15.447c-2.109,0-4.113,0.409-5.967,1.132
			c-3.42-5.859-9.765-9.812-17.047-9.812c-10.902,0-19.742,8.84-19.742,19.742c0,1.44,0.165,2.844,0.462,4.195
			C7.979,28.178,2.652,33.955,2.652,40.988c0,7.519,6.098,13.616,13.616,13.616h54.464c7.52,0,13.617-6.098,13.617-13.616
			C84.35,34.382,79.645,28.883,73.41,27.639z"/>
		<g>
			<path fill="#4E4E4E" d="M70.732,56.88H16.268c-8.763,0-15.892-7.128-15.892-15.892c0-7.336,4.948-13.568,11.839-15.37
				c-0.083-0.788-0.13-1.582-0.13-2.364c0-12.141,9.877-22.018,22.018-22.018c7.164,0,13.907,3.549,18.006,9.367
				c1.629-0.456,3.307-0.688,5.008-0.688c9.309,0,17.088,6.868,18.396,15.915c6.529,2.057,11.109,8.184,11.109,15.157
				C86.623,49.752,79.496,56.88,70.732,56.88z M34.103,5.786c-9.628,0-17.468,7.834-17.468,17.468c0,1.227,0.137,2.477,0.409,3.709
				l0.545,2.483l-2.529,0.267C9.283,30.329,4.927,35.176,4.927,40.988c0,6.251,5.09,11.341,11.341,11.341h54.464
				c6.252,0,11.342-5.09,11.342-11.341c0-5.392-3.834-10.067-9.107-11.122l-1.736-0.344l-0.096-1.766
				c-0.396-7.453-6.559-13.29-14.018-13.29c-1.754,0-3.479,0.326-5.139,0.978l-1.813,0.711l-0.977-1.683
				C46.061,9.116,40.283,5.786,34.103,5.786z"/>
		</g>
	</g>
	<g>
		<text transform="matrix(1 0 0 1 19.623 136.3984)" fill="#4E4E4E" font-family="'ScalaSans'" font-size="25.7864">Rain</text>
	</g>
</g>
<path fill="#4E4E4E" d="M74.634,27.582C74.15,18.622,66.753,11.5,57.673,11.5c-2.193,0-4.283,0.43-6.208,1.186
	C47.901,6.58,41.298,2.466,33.72,2.466c-11.35,0-20.551,9.2-20.551,20.551c0,1.501,0.17,2.96,0.476,4.369
	C6.526,28.14,0.98,34.159,0.98,41.477c0,7.828,6.346,14.173,14.173,14.173h56.693c7.827,0,14.173-6.345,14.173-14.173
	C86.02,34.603,81.126,28.876,74.634,27.582z"/>
</svg>
