<?xml version="1.0" encoding="utf-8"?>
<!-- Generator: Adobe Illustrator 15.0.0, SVG Export Plug-In . SVG Version: 6.00 Build 0)  -->
<!DOCTYPE svg PUBLIC "-//W3C//DTD SVG 1.1//EN" "http://www.w3.org/Graphics/SVG/1.1/DTD/svg11.dtd">
<svg version="1.1" id="Слой_1" xmlns="http://www.w3.org/2000/svg" xmlns:xlink="http://www.w3.org/1999/xlink" x="0px" y="0px"
	 width="86px" height="143px" viewBox="0 0 86 143" enable-background="new 0 0 86 143" xml:space="preserve">
<g>
	<g>
		<text transform="matrix(1 0 0 1 22.1064 136.3984)" fill="#4E4E4E" font-family="'ScalaSans'" font-size="25.7864">Sun</text>
	</g>
	<g>
		<g>
			<path fill="#4E4E4E" d="M33.254,14.645L28.648,3.523l-4.207,1.742l4.612,11.133C30.402,15.723,31.803,15.131,33.254,14.645z"/>
			<path fill="#4E4E4E" d="M11.945,44.11c0-0.764,0.059-1.517,0.115-2.269H0.002v4.55H12.06
				C12.004,45.634,11.945,44.881,11.945,44.11z"/>
			<path fill="#4E4E4E" d="M15.281,30.169l-11.134-4.61l-1.742,4.207l11.122,4.61C14.007,32.918,14.599,31.52,15.281,30.169z"/>
			<path fill="#4E4E4E" d="M22.729,20.629l-8.523-8.521l-3.217,3.218l8.523,8.521C20.503,22.697,21.579,21.625,22.729,20.629z"/>
			<path fill="#4E4E4E" d="M72.473,34.376l11.119-4.61l-1.742-4.207l-11.131,4.61C71.398,31.52,71.99,32.918,72.473,34.376z"/>
			<path fill="#4E4E4E" d="M66.492,23.847l8.52-8.521l-3.217-3.218l-8.523,8.521C64.424,21.625,65.496,22.697,66.492,23.847z"/>
			<path fill="#4E4E4E" d="M56.943,16.398l4.613-11.133L57.35,3.523l-4.607,11.121C54.193,15.125,55.596,15.717,56.943,16.398z"/>
			<path fill="#4E4E4E" d="M42.999,13.063c0.768,0,1.519,0.06,2.275,0.119V1.123h-4.55v12.059
				C41.479,13.122,42.231,13.063,42.999,13.063z"/>
			<path fill="#4E4E4E" d="M29.053,71.829l-4.612,11.139l4.207,1.742l4.609-11.127C31.803,73.103,30.405,72.51,29.053,71.829z"/>
			<path fill="#4E4E4E" d="M70.717,58.059l11.139,4.615l1.742-4.206l-11.127-4.61C71.99,55.31,71.398,56.708,70.717,58.059z"/>
			<path fill="#4E4E4E" d="M73.939,41.842c0.057,0.752,0.115,1.505,0.115,2.269c0,0.771-0.059,1.523-0.115,2.281h12.059v-4.55
				H73.939z"/>
			<path fill="#4E4E4E" d="M63.27,67.604l8.525,8.526l3.217-3.218l-8.525-8.526C65.494,65.536,64.418,66.608,63.27,67.604z"/>
			<path fill="#4E4E4E" d="M13.53,53.857l-11.125,4.61l1.742,4.206l11.137-4.615C14.602,56.714,14.01,55.31,13.53,53.857z"/>
			<path fill="#4E4E4E" d="M19.514,64.387l-8.526,8.526l3.217,3.218l8.526-8.526C21.582,66.608,20.506,65.536,19.514,64.387z"/>
			<path fill="#4E4E4E" d="M52.74,73.583L57.35,84.71l4.207-1.742l-4.613-11.139C55.592,72.51,54.193,73.103,52.74,73.583z"/>
			<path fill="#4E4E4E" d="M42.999,75.171c-0.768,0-1.52-0.06-2.275-0.119v12.058h4.55V75.052
				C44.518,75.111,43.766,75.171,42.999,75.171z"/>
		</g>
		<g>
			<path fill="#4E4E4E" d="M42.999,70.276c-14.425,0-26.16-11.738-26.16-26.16c0-14.428,11.735-26.159,26.16-26.159
				c14.425,0,26.164,11.731,26.164,26.159C69.162,58.538,57.424,70.276,42.999,70.276z M42.999,22.508
				c-11.915,0-21.609,9.693-21.609,21.608c0,11.916,9.694,21.609,21.609,21.609c11.916,0,21.613-9.693,21.613-21.609
				C64.611,32.201,54.914,22.508,42.999,22.508z"/>
		</g>
	</g>
	<path fill="#4E4E4E" d="M65.387,43.752c0,12.366-10.025,22.392-22.394,22.392c-12.363,0-22.388-10.025-22.388-22.392
		c0-12.365,10.025-22.391,22.388-22.391C55.361,21.361,65.387,31.387,65.387,43.752z"/>
</g>
</svg>
