<?xml version="1.0" encoding="utf-8"?>
<!-- Generator: Adobe Illustrator 15.0.0, SVG Export Plug-In . SVG Version: 6.00 Build 0)  -->
<!DOCTYPE svg PUBLIC "-//W3C//DTD SVG 1.1//EN" "http://www.w3.org/Graphics/SVG/1.1/DTD/svg11.dtd">
<svg version="1.1" id="Слой_1" xmlns="http://www.w3.org/2000/svg" xmlns:xlink="http://www.w3.org/1999/xlink" x="0px" y="0px"
	 width="160px" height="41px" viewBox="0 0 160 41" enable-background="new 0 0 160 41" xml:space="preserve">
<g>
	<path fill="#4E4E4E" d="M14.042,6.826v23.483H8.691V6.826H0.283V2.282H22.45v4.544H14.042z"/>
	<path fill="#4E4E4E" d="M31.582,16.593c-0.552-0.425-0.977-0.595-1.528-0.595c-0.807,0-1.699,0.552-2.463,1.486
		c-0.935,1.146-1.359,2.293-1.359,3.779v9.045h-5.053V10.563h4.373l0.213,4.331c1.911-3.354,3.143-4.629,4.671-4.629
		c1.062,0,1.953,0.468,2.761,1.401L31.582,16.593z"/>
	<path fill="#4E4E4E" d="M44.451,29.248c-0.977,2.803-1.699,4.33-3.186,6.752c-1.188,2.037-1.783,2.844-3.481,4.969l-4.162-2.719
		c1.869-1.996,2.591-2.846,3.652-4.543c1.316-1.996,1.911-3.229,3.015-6.412l-7.262-16.732h5.521l3.482,8.79l0.51,2.377l0.552-2.377
		l2.973-8.79h5.011L44.451,29.248z"/>
	<path fill="#4E4E4E" d="M81.485,30.309l-2.208-6.922h-9.385L67.6,30.309h-5.605L72.144,2.282h4.798l10.149,28.027H81.485z
		 M74.563,8.694l-3.227,10.149h6.497L74.563,8.694z"/>
	<path fill="#4E4E4E" d="M104.929,14.384c0.68,0.978,0.893,1.656,0.893,2.931c0,4.501-3.482,7.517-8.663,7.517
		c-0.51,0-0.807,0-1.444-0.129c-1.316,0.977-1.953,1.613-1.953,2.123c0,0.426,0.34,0.553,1.316,0.553h6.922
		c3.864,0,5.69,1.57,5.69,4.756c0,4.926-4.756,8.494-11.381,8.494c-4.841,0-8.11-1.996-8.11-4.969c0-1.529,0.849-2.846,3.142-4.799
		c-1.953-0.723-2.76-1.486-2.76-2.676c0-1.146,0.68-2.037,2.591-3.313c0.254-0.211,0.679-0.467,1.231-0.891
		c-0.893-0.68-1.274-0.977-1.741-1.529c-1.146-1.359-1.741-2.973-1.741-4.841c0-4.714,3.228-7.602,8.45-7.602
		c1.444,0,2.251,0.17,4.119,0.808h2.931l3.991-0.255v3.821H104.929z M100.428,31.498h-6.157c-0.17,0.297-0.297,0.553-0.425,0.68
		c-0.595,0.977-0.935,1.74-0.935,2.25c0,1.232,1.826,2.209,4.162,2.209c1.528,0,3.185-0.553,4.374-1.529
		c0.934-0.723,1.486-1.613,1.486-2.377C102.934,31.922,102.126,31.498,100.428,31.498z M97.328,13.663
		c-1.784,0-3.228,1.699-3.228,3.737c0,1.996,1.443,3.61,3.27,3.61s3.271-1.614,3.271-3.653
		C100.641,15.319,99.154,13.663,97.328,13.663z"/>
	<path fill="#4E4E4E" d="M126.76,30.564h-1.062c-2.548,0-3.355-0.426-4.247-2.166c-1.868,1.699-3.524,2.42-5.521,2.42
		c-3.354,0-5.732-2.207-5.732-5.35c0-0.68,0.127-1.359,0.34-1.996c0.68-1.826,1.868-2.76,4.756-3.61l5.605-1.614v-1.655
		c0-2.124-0.765-3.101-2.421-3.101c-1.528,0-2.76,0.807-2.76,1.784c0,0.169,0.042,0.254,0.127,0.509l-4.841,1.062
		c-0.212-0.594-0.255-0.807-0.255-1.358c0-3.482,3.058-5.479,8.408-5.479c4.714,0,6.837,1.954,6.837,6.285v8.238
		c0,1.783,0.213,2.082,1.571,2.209L126.76,30.564z M120.899,21.52l-5.054,1.656c-0.297,0.764-0.382,1.146-0.382,1.656
		c0,1.273,0.765,2.037,2.038,2.037c0.638,0,1.401-0.213,2.081-0.594c0.34-0.17,0.595-0.34,1.316-0.893V21.52z"/>
	<path fill="#4E4E4E" d="M134.193,6.911c-1.571,0-2.888-1.528-2.888-3.439s1.316-3.439,2.888-3.439s2.846,1.528,2.846,3.439
		S135.765,6.911,134.193,6.911z M131.646,30.309V10.563h5.054v19.746H131.646z"/>
	<path fill="#4E4E4E" d="M154.62,30.309V17.612c0-2.463-0.424-3.354-1.655-3.354c-1.063,0-2.549,1.062-4.757,3.439l-0.679,0.722
		v11.89h-5.097V10.563h5.097v3.27c2.378-2.59,4.331-3.652,6.837-3.652c3.566,0,5.351,1.869,5.351,5.605v14.523H154.62z"/>
</g>
</svg>
