<?xml version="1.0" encoding="utf-8"?>
<!-- Generator: Adobe Illustrator 15.0.0, SVG Export Plug-In . SVG Version: 6.00 Build 0)  -->
<!DOCTYPE svg PUBLIC "-//W3C//DTD SVG 1.1//EN" "http://www.w3.org/Graphics/SVG/1.1/DTD/svg11.dtd">
<svg version="1.1" id="Слой_1" xmlns="http://www.w3.org/2000/svg" xmlns:xlink="http://www.w3.org/1999/xlink" x="0px" y="0px"
	 width="158px" height="40px" viewBox="0 0 158 40" enable-background="new 0 0 158 40" xml:space="preserve">
<g>
	<path fill="#4E4E4E" d="M13.021,3.948v25.097H9.539V3.948H0.197V1.018h22.167v2.931H13.021z"/>
	<path fill="#4E4E4E" d="M31.241,13.29c-0.637-0.552-0.977-0.764-1.358-0.764c-1.189,0-2.718,1.74-4.544,5.053v11.466h-3.185V9.809
		h3.185v3.481c2.378-3.058,3.567-3.991,5.011-3.991c0.722,0,1.614,0.467,2.463,1.316L31.241,13.29z"/>
	<path fill="#4E4E4E" d="M42.072,30.106c-0.893,2.378-1.614,3.949-2.676,5.648c-0.765,1.231-1.316,2.038-2.888,4.034l-2.548-1.954
		c1.911-2.123,2.548-2.973,3.652-4.968c1.062-1.869,1.571-3.016,2.675-5.945L33.154,9.809h3.567l4.628,11.763l0.638,1.868
		l0.424-1.868l3.95-11.763h3.27L42.072,30.106z"/>
	<path fill="#4E4E4E" d="M81.824,29.045l-2.888-8.28H67.597l-2.887,8.28h-3.737L71.419,0.211h3.737l10.404,28.834H81.824z
		 M73.288,4.755l-4.586,12.824h9.13L73.288,4.755z"/>
	<path fill="#4E4E4E" d="M102.592,12.483c0.764,1.146,1.146,2.421,1.146,3.992c0,3.906-3.439,7.261-7.475,7.261
		c-0.254,0-0.637-0.042-1.188-0.085c-0.129,0-0.34-0.042-0.639-0.042c-1.783,1.486-2.504,2.336-2.504,2.888
		c0,0.51,0.424,0.68,1.613,0.68h7.176c3.568,0,5.182,1.401,5.182,4.501c0,4.501-4.629,8.111-10.404,8.111
		c-4.035,0-7.516-2.124-7.516-4.629c0-0.553,0.211-1.231,0.594-1.996c0.553-1.062,1.104-1.783,2.549-3.313
		c-1.955-0.552-2.762-1.188-2.762-2.293c0-1.231,1.189-2.675,3.779-4.799c-2.42-1.316-3.693-3.439-3.693-6.114
		c0-4.332,3.184-7.347,7.686-7.347c1.402,0,2.209,0.17,4.076,0.807h2.932l3.48-0.297v2.675H102.592z M100.723,30.106h-7.176
		l-0.637,0.977c-1.232,1.911-1.613,2.676-1.613,3.397c0,1.443,1.91,2.463,4.5,2.463c3.906,0,7.432-2.293,7.432-4.884
		C103.229,30.743,102.422,30.106,100.723,30.106z M95.924,11.719c-2.334,0-4.246,2.166-4.246,4.799s1.912,4.799,4.289,4.799
		c2.42,0,4.289-2.081,4.289-4.799C100.256,13.843,98.346,11.719,95.924,11.719z"/>
	<path fill="#4E4E4E" d="M124.719,29.597c-2.633-0.17-3.566-0.849-3.736-2.675c-0.977,0.849-1.4,1.188-2.039,1.528
		c-1.188,0.68-2.717,1.104-4.076,1.104c-3.1,0-5.139-1.996-5.139-5.054c0-2.803,1.486-4.671,4.289-5.351l6.668-1.571v-3.481
		c0-1.571-1.189-2.379-3.652-2.379c-1.996,0-2.93,0.553-2.93,1.656c0,0.213,0.043,0.383,0.17,0.723l-3.229,0.679
		c-0.297-0.51-0.34-0.722-0.34-1.188c0-2.548,2.803-4.289,6.922-4.289c3.865,0,6.285,1.826,6.285,4.799v10.403v1.401
		c0.086,0.51,0.596,0.85,1.572,1.02L124.719,29.597z M120.686,20.255l-7.219,1.868c-0.469,0.892-0.553,1.316-0.553,2.081
		c0,1.528,1.02,2.505,2.59,2.505c1.445,0,2.422-0.467,5.182-2.463V20.255z"/>
	<path fill="#4E4E4E" d="M132.918,5.18c-1.146,0-2.082-0.935-2.082-2.081s0.936-2.081,2.082-2.081s2.08,0.935,2.08,2.081
		S134.064,5.18,132.918,5.18z M131.305,29.045V9.809h3.184v19.236H131.305z"/>
	<path fill="#4E4E4E" d="M154.619,29.045V15.414c0-1.274-0.086-1.699-0.297-2.251c-0.299-0.637-1.063-1.02-1.955-1.02
		c-1.953,0-4.033,1.444-7.389,5.139v11.763h-3.184V9.809h3.184v4.034c1.316-1.486,1.699-1.869,2.633-2.633
		c1.443-1.231,3.355-1.911,5.139-1.911c3.396,0,5.053,1.741,5.053,5.351v14.396H154.619z"/>
</g>
</svg>
