<?xml version="1.0" encoding="utf-8"?><svg xmlns="http://www.w3.org/2000/svg" xmlns:xlink="http://www.w3.org/1999/xlink" x="-250" y="-250" width="500px" height="500px" viewBox="-250 -250 500 500">
<g>
<path d="M-18 -186L-18 -185.27067669172934L-18 -184.54135338345864L-18 -183.81203007518798L-18 -183.08270676691728L-18 -182.35338345864662L-18 -181.62406015037595L-18 -180.89473684210526L-18 -180.1654135338346L-18 -179.4360902255639L-18 -178.70676691729324L-18 -177.97744360902254L-18 -177.24812030075188L-18 -176.5187969924812L-18 -175.78947368421052L-18 -175.06015037593986L-18 -174.33082706766916L-18 -173.6015037593985L-18 -172.87218045112783L-18 -172.14285714285714L-18 -171.41353383458647L-18 -170.68421052631578L-18 -169.95488721804512L-18 -169.22556390977445L-18 -168.49624060150376L-18 -167.7669172932331L-18 -167.0375939849624L-18 -166.30827067669173L-18 -165.57894736842104L-18 -164.84962406015038L-18 -164.1203007518797L-18 -163.39097744360902L-18 -162.66165413533835L-18 -161.93233082706766L-18 -161.203007518797L-18 -160.47368421052633L-18 -159.74436090225564L-18 -159.01503759398497L-18 -158.28571428571428L-18 -157.5563909774436L-18 -156.82706766917295L-18 -156.09774436090225L-18 -155.3684210526316L-18 -154.6390977443609L-18 -153.90977443609023L-18 -153.18045112781954L-18 -152.45112781954887L-18 -151.7218045112782L-18 -150.99248120300751L-18 -150.26315789473685L-18 -149.53383458646618L-18 -148.8045112781955L-18 -148.0751879699248L-18 -147.34586466165413L-18 -146.61654135338347L-18 -145.88721804511277L-18 -145.1578947368421L-18 -144.42857142857144L-18 -143.69924812030075L-18 -142.9699248120301L-18 -142.2406015037594L-18 -141.51127819548873L-18 -140.78195488721803L-18 -140.05263157894737L-18 -139.3233082706767L-18 -138.593984962406L-18 -137.86466165413535L-18 -137.13533834586468L-18 -136.406015037594L-18 -135.6766917293233L-18 -134.94736842105263L-18 -134.21804511278197L-18 -133.48872180451127L-18 -132.7593984962406L-18 -132.03007518796994L-18 -131.30075187969925L-18 -130.57142857142858L-18 -129.8421052631579L-18 -129.11278195488723L-18 -128.38345864661653L-18 -127.65413533834587L-18 -126.92481203007519L-18 -126.19548872180451L-18 -125.46616541353384L-18 -124.73684210526316L-18 -124.00751879699249L-18 -123.2781954887218L-18 -122.54887218045113L-18 -121.81954887218045L-18 -121.09022556390978L-18 -120.3609022556391L-18 -119.63157894736842L-18 -118.90225563909775L-18 -118.17293233082707L-18 -117.4436090225564L-18 -116.71428571428572L-18 -115.98496240601504L-18 -115.25563909774436L-18 -114.52631578947368L-18 -113.796992481203L-18 -113.06766917293234L-18 -112.33834586466166L-18 -111.60902255639098L-18 -110.8796992481203L-18 -110.15037593984962L-18 -109.42105263157895L-18 -108.69172932330828L-18 -107.9624060150376L-18 -107.23308270676692L-18 -106.50375939849624L-18 -105.77443609022556L-18 -105.0451127819549L-18 -104.31578947368422L-18 -103.58646616541354L-18 -102.85714285714286L-18 -102.12781954887218L-18 -101.3984962406015L-18 -100.66917293233084L-18 -99.93984962406016L-18 -99.21052631578948L-18 -98.4812030075188L-18 -97.75187969924812L-18 -97.02255639097744L-18 -96.29323308270678L-18 -95.5639097744361L-18 -94.83458646616542L-18 -94.10526315789474L-18 -93.37593984962406L-18 -92.64661654135338L-18 -91.91729323308272L-18 -91.18796992481204L-18 -90.45864661654136L-18 -89.72932330827068L-18 -89L-18 -88.27067669172934L-18 -87.54135338345866L-18 -86.81203007518798L-18 -86.0827067669173L-18 -85.35338345864662L-18 -84.62406015037594L-18 -83.89473684210527L-18 -83.1654135338346L-18 -82.43609022556392L-18 -81.70676691729324L-18 -80.97744360902256L-18 -80.24812030075188L-18 -79.51879699248121L-18 -78.78947368421053L-18 -78.06015037593986L-18 -77.33082706766918L-18 -76.6015037593985L-18 -75.87218045112783L-18 -75.14285714285715L-18 -74.41353383458647L-18 -73.6842105263158L-18 -72.95488721804512L-18 -72.22556390977444L-18 -71.49624060150377L-18 -70.76691729323309L-18 -70.03759398496241L-18 -69.30827067669173L-18 -68.57894736842105L-18 -67.84962406015038L-18 -67.12030075187971L-18 -66.39097744360903L-18 -65.66165413533835L-18 -64.93233082706767L-18 -64.203007518797L-18 -63.47368421052633L-18 -62.74436090225565L-18 -62.01503759398497L-18 -61.28571428571429L-18 -60.55639097744361L-18 -59.82706766917293L-18 -59.09774436090227L-18 -58.36842105263159L-18 -57.639097744360896L-18 -56.90977443609023L-18 -56.180451127819566L-18 -55.45112781954887L-18 -54.72180451127821L-18 -53.992481203007515L-18 -53.26315789473685L-18 -52.533834586466185L-18 -51.80451127819549L-18 -51.075187969924826L-18 -50.34586466165413L-18 -49.61654135338347L-18 -48.8872180451128L-18 -48.15789473684211L-18 -47.428571428571445L-18 -46.69924812030075L-18 -45.96992481203009L-18 -45.24060150375939L-18 -44.51127819548873L-18 -43.78195488721806L-18 -43.05263157894737L-18 -42.323308270676705L-18 -41.59398496240601L-18 -40.86466165413535L-18 -40.13533834586468L-18 -39.40601503759402L-18 -38.67669172932332L-18 -37.94736842105263L-18 -37.218045112781965L-18 -36.4887218045113L-18 -35.75939849624061L-18 -35.03007518796991L-18 -34.30075187969925L-18 -33.571428571428584L-18 -32.84210526315789L-18 -32.1127819548872L-18 -31.38345864661656L-18 -30.654135338345895L-18 -29.924812030075202L-18 -29.19548872180451L-18 -28.466165413533844L-18 -27.73684210526318L-18 -27.007518796992485L-18 -26.278195488721792L-18 -25.548872180451127L-18 -24.819548872180462L-18 -24.090225563909797L-18 -23.360902255639104L-18 -22.63157894736844L-18 -21.902255639097774L-18 -21.17293233082708L-18 -20.443609022556387L-18 -19.714285714285722L-18 -18.984962406015057L-18 -18.255639097744364L-18 -17.52631578947367L-18 -16.796992481203006L-18 -16.06766917293237L-18 -15.338345864661676L-18 -14.609022556390983L-18 -13.879699248120318L-18 -13.150375939849653L-18 -12.42105263157896L-18 -11.691729323308266L-18 -10.962406015037601L-18 -10.233082706766936L-18 -9.503759398496243L-18 -8.77443609022555L-18 -8.045112781954884L-18 -7.315789473684248L-18 -6.586466165413555L-18 -5.857142857142861L-18 -5.127819548872196L-18 -4.398496240601531L-18 -3.669172932330838L-18 -2.9398496240601446L-18 -2.2105263157894797L-18 -1.4812030075188147L-18 -0.7518796992481214L-18 -0.02255639097742801L-18 0.7067669172932369L-18 1.4360902255638734L-18 2.165413533834567L-18 2.89473684210526L-18 3.624060150375925L-18 4.35338345864659L-18 5.082706766917283L-18 5.812030075187977L-18 6.541353383458642L-18 7.270676691729307L-18 8L-18 8.729323308270693L-18 9.45864661654133L-18 10.187969924811995L-18 10.917293233082688L-18 11.646616541353382L-18 12.375939849624046L-18 13.105263157894711L-18 13.834586466165405L-18 14.563909774436098L-18 15.293233082706763L-18 16.022556390977428L-18 16.75187969924812L-18 17.481203007518815L-18 18.21052631578945L-18 18.939849624060116L-18 19.66917293233081L-18 20.398496240601503L-18 21.127819548872168L-18 21.857142857142833L-18 22.586466165413526L-18 23.31578947368422L-18 24.045112781954884L-18 24.77443609022555L-18 25.503759398496243L-18 26.233082706766908L-18 26.962406015037573L-18 27.691729323308238L-18 28.42105263157893L-18 29.150375939849624L-18 29.87969924812029L-18 30.609022556390954L-18 31.338345864661648L-18 32.06766917293234L-18 32.796992481203006L-18 33.52631578947364L-18 34.255639097744336L-18 34.98496240601503L-18 35.714285714285694L-18 36.44360902255636L-18 37.17293233082705L-18 37.902255639097746L-18 38.63157894736841L-18 39.360902255639076L-18 40.09022556390977L-18 40.81954887218046L-18 41.54887218045113L-18 42.278195488721764L-18 43.00751879699246L-18 43.73684210526315L-18 44.466165413533815L-18 45.19548872180448L-18 45.924812030075174L-18 46.65413533834587L-18 47.38345864661653L-18 48.1127819548872L-18 48.84210526315789L-18 49.571428571428584L-18 50.30075187969925L-18 51.030075187969885L-18 51.75939849624058L-18 52.48872180451127L-18 53.21804511278194L-18 53.9473684210526L-18 54.676691729323295L-18 55.40601503759399L-18 56.13533834586465L-18 56.86466165413532L-18 57.59398496240601L-18 58.323308270676705L-18 59.05263157894734L-18 59.781954887218006L-18 60.5112781954887L-18 61.24060150375939L-18 61.96992481203006L-18 62.69924812030072L-18 63.428571428571416L-18 64.15789473684211L-18 64.88721804511277L-18 65.61654135338344L-18 66.34586466165413L-18 67.07518796992483L-18 67.80451127819546L-18 68.53383458646613L-18 69.26315789473682L-18 69.99248120300751L-18 70.72180451127821L-18 71.45112781954884L-18 72.18045112781954L-18 72.90977443609023L-18 73.63909774436087L-18 74.36842105263156L-18 75.09774436090225L-18 75.82706766917295L-18 76.55639097744358L-18 77.28571428571428L-18 78.01503759398497L-18 78.74436090225566L-18 79.4736842105263L-18 80.20300751879694L-18 80.93233082706763L-18 81.66165413533832L-18 82.39097744360902L-18 83.12030075187965L-18 83.84962406015035L-18 84.57894736842104L-18 85.30827067669173L-18 86.03759398496237L-18 86.76691729323306L-18 87.49624060150376L-18 88.2255639097744L-18 88.95488721804509L-18 89.68421052631578L-18 90.41353383458647L-18 91.14285714285711L-18 91.8721804511278L-18 92.6015037593985L-18 93.33082706766919L-18 94.06015037593983L-18 94.78947368421052L-18 95.51879699248121L-18 96.2481203007519L-18 96.97744360902254L-18 97.70676691729318L-18 98.43609022556387L-18 99.16541353383457L-18 99.89473684210526L-18 100.6240601503759L-18 101.35338345864659L-18 102.08270676691728L-18 102.81203007518798L-18 103.54135338345861L-18 104.2706766917293L-18 105" fill="none" stroke="black" stroke-width="1"/>
<path d="M-20 -188.5L114 -188.5C113.448 -188.5 113 -175.06 113 -158.5L113 -103.5C113 -86.94 113.448 -73.5 114 -73.5L-20 -73.5C-19.448 -73.5 -19 -86.94 -19 -103.5L-19 -158.5C-19 -175.06 -19.448 -188.5 -20 -188.5Z" fill="yellow"/>
<path d="M-18 -186.5L50 -186.5L50 -131.5L-18 -131.5Z" fill="red"/>
<path d="M49 -132.5L113 -132.5L113 -77.5L49 -77.5Z" fill="red"/>
</g>
</svg>
