<?xml version="1.0" encoding="utf-8"?>
<!-- Generator: Adobe Illustrator 18.1.1, SVG Export Plug-In . SVG Version: 6.00 Build 0)  -->
<svg version="1.1" baseProfile="tiny" id="Layer_1" xmlns="http://www.w3.org/2000/svg" xmlns:xlink="http://www.w3.org/1999/xlink"
	 x="0px" y="0px" viewBox="-299 -97 744 744" xml:space="preserve">
<g>
	<path d="M-107,120.6h10.7v-1.3l-2.1-3.2l-1,0.7l1.5,2.4h-9.1V120.6z M-106.2,123.8l-1.1,0.3c1.1,3.9,2.8,5.7,7.1,5.7
		c2.5,0,4.2-1.3,4.2-3.5c0-1.9-1.3-3.4-3.5-3.4c-2.1,0-3.4,1.3-3.4,2.9c0,1.1,0.5,1.9,1.2,2.4l0,0
		C-104.1,128.1-105.5,126.4-106.2,123.8z M-102,126.2c0-1,0.7-1.8,2.3-1.8c1.5,0,2.4,0.8,2.4,1.9c0,1.2-0.9,2-3.3,2
		C-101.4,127.8-102,127.1-102,126.2z M-107,135.5h10.7v-1.3l-2.1-3.2l-1,0.7l1.5,2.4h-9.1V135.5z M-103.6,144.5c2.1,0,3.4-1.2,3.4-3
		c0-0.5-0.1-1.1-0.4-1.6h3.1v4.2l1.2,0.2v-5.8h-5.4v1.2c0.2,0.5,0.4,0.9,0.4,1.4c0,1.1-0.6,2-2.2,2c-1.5,0-2.4-0.8-2.4-2.2
		c0-0.8,0.3-1.6,1.1-2.2l-0.8-1c-1,0.9-1.4,1.9-1.4,3.2C-107.2,143.1-105.7,144.5-103.6,144.5z"/>
	<path d="M-107,168.4h10.7v-1.3l-2.1-3.2l-1,0.7l1.5,2.4h-9.1V168.4z M-106.2,171.6l-1.1,0.3c1.1,3.9,2.8,5.7,7.1,5.7
		c2.5,0,4.2-1.3,4.2-3.5c0-1.9-1.3-3.4-3.5-3.4c-2.1,0-3.4,1.3-3.4,2.9c0,1.1,0.5,1.9,1.2,2.4l0,0
		C-104.1,175.9-105.5,174.2-106.2,171.6z M-102,174c0-1,0.7-1.8,2.3-1.8c1.5,0,2.4,0.8,2.4,1.9c0,1.2-0.9,2-3.3,2
		C-101.4,175.6-102,174.9-102,174z M-107,183.3h10.7V182l-2.1-3.2l-1,0.7l1.5,2.4h-9.1V183.3z M-96.8,192c0.4-0.6,0.6-1.3,0.6-2.2
		c0-2.5-2.3-4-5.8-4c-3.1,0-5.3,1-5.3,3.6c0,1.8,1.5,3.4,3.8,3.4c2.3,0,3.4-1.4,3.4-2.9c0-0.9-0.4-1.8-1.4-2.5
		c2.4,0.1,4.1,1,4.1,2.5c0,0.5-0.1,1.1-0.5,1.6L-96.8,192z M-101.1,189.5c0,1-0.6,1.7-2.3,1.7c-1.6,0-2.6-0.7-2.6-1.9
		c0-1.4,1.1-2,3.4-2.1C-101.7,187.8-101.1,188.6-101.1,189.5z"/>
	<path d="M-107,217h10.7v-1.3l-2.1-3.2l-1,0.7l1.5,2.4h-9.1V217z M-106.2,220.2l-1.1,0.3c1.1,3.9,2.8,5.7,7.1,5.7
		c2.5,0,4.2-1.3,4.2-3.5c0-1.9-1.3-3.4-3.5-3.4c-2.1,0-3.4,1.3-3.4,2.9c0,1.1,0.5,1.9,1.2,2.4l0,0
		C-104.1,224.5-105.5,222.8-106.2,220.2z M-102,222.6c0-1,0.7-1.8,2.3-1.8c1.5,0,2.4,0.8,2.4,1.9c0,1.2-0.9,2-3.3,2
		C-101.4,224.2-102,223.5-102,222.6z M-107,231.9h10.7v-1.3l-2.1-3.2l-1,0.7l1.5,2.4h-9.1V231.9z M-97.4,240.1h1.1v-6.2h-1.2v4.7
		l-9.2-3.9l-0.4,1.4L-97.4,240.1z"/>
	<path d="M-107,264.2h10.7v-1.3l-2.1-3.2l-1,0.7l1.5,2.4h-9.1V264.2z M-106.2,267.4l-1.1,0.3c1.1,3.9,2.8,5.7,7.1,5.7
		c2.5,0,4.2-1.3,4.2-3.5c0-1.9-1.3-3.4-3.5-3.4c-2.1,0-3.4,1.3-3.4,2.9c0,1.1,0.5,1.9,1.2,2.4l0,0
		C-104.1,271.8-105.5,270-106.2,267.4z M-102,269.8c0-1,0.7-1.8,2.3-1.8c1.5,0,2.4,0.8,2.4,1.9c0,1.2-0.9,2-3.3,2
		C-101.4,271.4-102,270.7-102,269.8z M-107,279.2h10.7v-1.3l-2.1-3.2l-1,0.7l1.5,2.4h-9.1V279.2z M-98.9,288.4
		c1.9,0,2.7-1.6,2.7-3.2c0-1.4-0.8-3.2-2.8-3.2c-1.1,0-1.9,0.5-2.5,1.7c-0.6-1.3-1.5-2.1-2.8-2.1c-1.8,0-3,1.5-3,3.7
		c0,2.2,1.3,3.7,3.1,3.7c1.3,0,2.3-0.8,2.9-2.3C-100.6,287.8-99.8,288.4-98.9,288.4z M-104.2,287.3c-1,0-1.9-0.8-1.9-2.2
		c0-1.3,0.7-2.1,1.9-2.1c1.3,0,2,0.7,2.4,1.6C-102.4,286.3-102.7,287.3-104.2,287.3z M-98.9,283.4c1.1,0,1.7,0.7,1.7,1.8
		c0,1.1-0.7,1.8-1.7,1.8c-0.9,0-1.5-0.4-2-1.4C-100.5,284.2-100,283.4-98.9,283.4z"/>
	<path d="M-107,312.5h10.7v-1.3l-2.1-3.2l-1,0.7l1.5,2.4h-9.1V312.5z M-106.2,315.7l-1.1,0.3c1.1,3.9,2.8,5.7,7.1,5.7
		c2.5,0,4.2-1.3,4.2-3.5c0-1.9-1.3-3.4-3.5-3.4c-2.1,0-3.4,1.3-3.4,2.9c0,1.1,0.5,1.9,1.2,2.4l0,0
		C-104.1,320-105.5,318.3-106.2,315.7z M-102,318.1c0-1,0.7-1.8,2.3-1.8c1.5,0,2.4,0.8,2.4,1.9c0,1.2-0.9,2-3.3,2
		C-101.4,319.7-102,319-102,318.1z M-107,327.4h10.7v-1.3l-2.1-3.2l-1,0.7l1.5,2.4h-9.1V327.4z M-106.2,330.6l-1.1,0.3
		c1.1,3.9,2.8,5.7,7.1,5.7c2.5,0,4.2-1.3,4.2-3.5c0-1.9-1.3-3.4-3.5-3.4c-2.1,0-3.4,1.3-3.4,2.9c0,1.1,0.5,1.9,1.2,2.4l0,0
		C-104.1,335-105.5,333.2-106.2,330.6z M-102,333c0-1,0.7-1.8,2.3-1.8c1.5,0,2.4,0.8,2.4,1.9c0,1.2-0.9,2-3.3,2
		C-101.4,334.6-102,333.9-102,333z"/>
	<path d="M-107,359.4h10.7v-1.3l-2.1-3.2l-1,0.7l1.5,2.4h-9.1V359.4z M-106.2,362.6l-1.1,0.3c1.1,3.9,2.8,5.7,7.1,5.7
		c2.5,0,4.2-1.3,4.2-3.5c0-1.9-1.3-3.4-3.5-3.4c-2.1,0-3.4,1.3-3.4,2.9c0,1.1,0.5,1.9,1.2,2.4l0,0
		C-104.1,366.9-105.5,365.2-106.2,362.6z M-102,365c0-1,0.7-1.8,2.3-1.8c1.5,0,2.4,0.8,2.4,1.9c0,1.2-0.9,2-3.3,2
		C-101.4,366.6-102,365.9-102,365z M-99.2,376.4c1.8,0,3-1.2,3-3.2c0-1.3-0.5-2.4-1.6-3.2l-0.8,1c0.8,0.7,1.2,1.3,1.2,2.2
		c0,1-0.7,1.8-1.9,1.8c-1.7,0-2.8-0.9-6.6-4.7h-1.2v6.3l1.2,0.2v-4.8C-102.6,375.1-101.1,376.4-99.2,376.4z M-101.7,380.1
		c3.1,0,4.4,0.7,4.4,2c0,1.3-1.2,2-4.4,2c-3.2,0-4.4-0.7-4.4-2C-106,380.8-104.8,380.1-101.7,380.1z M-101.7,385.7
		c3.5,0,5.5-1.2,5.5-3.6c0-2.4-2-3.6-5.5-3.6c-3.6,0-5.5,1.2-5.5,3.6C-107.2,384.5-105.2,385.7-101.7,385.7z"/>
	<g>
		<g>
			<path fill="#354000" d="M46.4,132h10v15h-10V132z"/>
		</g>
		<g>
			<path fill="#354000" d="M58.2,126h10v21h-10V126z"/>
			<path fill="#B48B00" d="M58.2,124h10v2h-10V124z"/>
		</g>
		<g>
			<path fill="#8B5700" d="M70,145h10v2H70V145z"/>
			<path fill="#354000" d="M70,108h10v37H70V108z"/>
		</g>
	</g>
	<g>
		<g>
			<path fill="#BCF300" d="M-60,193h10v2h-10V193z"/>
			<path fill="#354000" d="M-60,156h10v37h-10V156z"/>
			<path fill="#D0C300" d="M-60,154h10v2h-10V154z"/>
		</g>
		<g>
			<path fill="#8B5700" d="M-48.2,193h10v2h-10V193z"/>
			<path fill="#354000" d="M-48.2,160h10v33h-10V160z"/>
			<path fill="#B48B00" d="M-48.2,156h10v4h-10V156z"/>
		</g>
		<g>
			<path fill="#354000" d="M-36.4,169h10v26h-10V169z"/>
			<path fill="#D0C300" d="M-36.4,165h10v4h-10V165z"/>
		</g>
		<g>
			<path fill="#8B5700" d="M-24.5,194h10v1h-10V194z"/>
			<path fill="#BCF300" d="M-24.5,193h10v1h-10V193z"/>
			<path fill="#354000" d="M-24.5,157h10v36h-10V157z"/>
			<path fill="#D0C300" d="M-24.5,154h10v3h-10V154z"/>
		</g>
		<g>
			<path fill="#8B5700" d="M-12.7,194h10v1h-10V194z"/>
			<path fill="#BCF300" d="M-12.7,192h10v2h-10V192z"/>
			<path fill="#354000" d="M-12.7,162h10v30h-10V162z"/>
			<path fill="#D0C300" d="M-12.7,161h10v1h-10V161z"/>
			<path fill="#B48B00" d="M-12.7,159h10v2h-10V159z"/>
		</g>
		<g>
			<path fill="#8B5700" d="M-0.9,191h10v4h-10V191z"/>
			<path fill="#BCF300" d="M-0.9,190h10v1h-10V190z"/>
			<path fill="#354000" d="M-0.9,173h10v17h-10V173z"/>
			<path fill="#D0C300" d="M-0.9,169h10v4h-10V169z"/>
			<path fill="#FFFFFF" d="M-0.9,168h10v1h-10V168z"/>
			<path fill="#B48B00" d="M-0.9,166h10v2h-10V166z"/>
		</g>
		<g>
			<path fill="#8B5700" d="M10.9,192h10v3h-10V192z"/>
			<path fill="#BCF300" d="M10.9,190h10v2h-10V190z"/>
			<path fill="#354000" d="M10.9,177h10v13h-10V177z"/>
			<path fill="#D0C300" d="M10.9,174h10v3h-10V174z"/>
			<path fill="#5FE600" d="M10.9,172h10v2h-10V172z"/>
			<path fill="#B48B00" d="M10.9,168h10v4h-10V168z"/>
		</g>
		<g>
			<path fill="#8B5700" d="M22.7,193h10v2h-10V193z"/>
			<path fill="#BCF300" d="M22.7,187h10v6h-10V187z"/>
			<path fill="#354000" d="M22.7,172h10v15h-10V172z"/>
			<path fill="#D0C300" d="M22.7,166h10v6h-10V166z"/>
			<path fill="#5FE600" d="M22.7,162h10v4h-10V162z"/>
			<path fill="#B48B00" d="M22.7,160h10v2h-10V160z"/>
		</g>
		<g>
			<path fill="#8B5700" d="M34.5,194h10v1h-10V194z"/>
			<path fill="#354000" d="M34.5,185h10v9h-10V185z"/>
			<path fill="#D0C300" d="M34.5,177h10v8h-10V177z"/>
			<path fill="#FFFFFF" d="M34.5,175h10v2h-10V175z"/>
			<path fill="#5FE600" d="M34.5,174h10v1h-10V174z"/>
			<path fill="#B48B00" d="M34.5,172h10v2h-10V172z"/>
		</g>
		<g>
			<path fill="#8B5700" d="M46.4,193h10v2h-10V193z"/>
			<path fill="#354000" d="M46.4,180h10v13h-10V180z"/>
			<path fill="#D0C300" d="M46.4,173h10v7h-10V173z"/>
			<path fill="#B48B00" d="M46.4,169h10v4h-10V169z"/>
		</g>
		<g>
			<path fill="#8B5700" d="M58.2,191h10v4h-10V191z"/>
			<path fill="#354000" d="M58.2,166h10v25h-10V166z"/>
			<path fill="#D0C300" d="M58.2,165h10v1h-10V165z"/>
			<path fill="#B48B00" d="M58.2,162h10v3h-10V162z"/>
		</g>
		<g>
			<path fill="#BCF300" d="M70,192h10v3H70V192z"/>
			<path fill="#354000" d="M70,168h10v24H70V168z"/>
			<path fill="#D0C300" d="M70,160h10v8H70V160z"/>
			<path fill="#B48B00" d="M70,158h10v2H70V158z"/>
		</g>
	</g>
	<g>
		<g>
			<path fill="#354000" d="M-60,228h10v15h-10V228z"/>
			<path fill="#D0C300" d="M-60,220h10v8h-10V220z"/>
		</g>
		<g>
			<path fill="#8B5700" d="M-48.2,239h10v4h-10V239z"/>
			<path fill="#354000" d="M-48.2,224h10v15h-10V224z"/>
			<path fill="#B48B00" d="M-48.2,222h10v2h-10V222z"/>
		</g>
		<g>
			<path fill="#8B5700" d="M-36.4,238h10v5h-10V238z"/>
			<path fill="#BCF300" d="M-36.4,237h10v1h-10V237z"/>
			<path fill="#354000" d="M-36.4,223h10v14h-10V223z"/>
			<path fill="#D0C300" d="M-36.4,221h10v2h-10V221z"/>
			<path fill="#B48B00" d="M-36.4,220h10v1h-10V220z"/>
		</g>
		<g>
			<path fill="#8B5700" d="M-24.5,240h10v3h-10V240z"/>
			<path fill="#BCF300" d="M-24.5,239h10v1h-10V239z"/>
			<path fill="#354000" d="M-24.5,218h10v21h-10V218z"/>
			<path fill="#888400" d="M-24.5,217h10v1h-10V217z"/>
			<path fill="#B48B00" d="M-24.5,214h10v3h-10V214z"/>
		</g>
		<g>
			<path fill="#8B5700" d="M-12.7,241h10v2h-10V241z"/>
			<path fill="#BCF300" d="M-12.7,238h10v3h-10V238z"/>
			<path fill="#354000" d="M-12.7,233h10v5h-10V233z"/>
			<path fill="#D0C300" d="M-12.7,231h10v2h-10V231z"/>
		</g>
		<g>
			<path fill="#8B5700" d="M-0.9,240h10v3h-10V240z"/>
			<path fill="#BCF300" d="M-0.9,237h10v3h-10V237z"/>
			<path fill="#354000" d="M-0.9,233h10v4h-10V233z"/>
			<path fill="#D0C300" d="M-0.9,229h10v4h-10V229z"/>
		</g>
		<g>
			<path fill="#8B5700" d="M10.9,232h10v11h-10V232z"/>
			<path fill="#BCF300" d="M10.9,231h10v1h-10V231z"/>
			<path fill="#354000" d="M10.9,228h10v3h-10V228z"/>
			<path fill="#D0C300" d="M10.9,226h10v2h-10V226z"/>
			<path fill="#B48B00" d="M10.9,225h10v1h-10V225z"/>
		</g>
		<g>
			<path fill="#8B5700" d="M22.7,238h10v5h-10V238z"/>
			<path fill="#BCF300" d="M22.7,236h10v2h-10V236z"/>
			<path fill="#354000" d="M22.7,234h10v2h-10V234z"/>
			<path fill="#D0C300" d="M22.7,230h10v4h-10V230z"/>
			<path fill="#B48B00" d="M22.7,228h10v2h-10V228z"/>
		</g>
		<g>
			<path fill="#8B5700" d="M34.5,234h10v9h-10V234z"/>
			<path fill="#BCF300" d="M34.5,233h10v1h-10V233z"/>
			<path fill="#354000" d="M34.5,230h10v3h-10V230z"/>
			<path fill="#D0C300" d="M34.5,225h10v5h-10V225z"/>
			<path fill="#B48B00" d="M34.5,223h10v2h-10V223z"/>
		</g>
		<g>
			<path fill="#8B5700" d="M46.4,239h10v4h-10V239z"/>
			<path fill="#BCF300" d="M46.4,237h10v2h-10V237z"/>
			<path fill="#354000" d="M46.4,235h10v2h-10V235z"/>
			<path fill="#D0C300" d="M46.4,233h10v2h-10V233z"/>
			<path fill="#B48B00" d="M46.4,232h10v1h-10V232z"/>
		</g>
		<g>
			<path fill="#8B5700" d="M58.2,236h10v7h-10V236z"/>
			<path fill="#354000" d="M58.2,234h10v2h-10V234z"/>
			<path fill="#D0C300" d="M58.2,232h10v2h-10V232z"/>
			<path fill="#B48B00" d="M58.2,231h10v1h-10V231z"/>
		</g>
		<g>
			<path fill="#8B5700" d="M70,236h10v7H70V236z"/>
			<path fill="#BCF300" d="M70,235h10v1H70V235z"/>
			<path fill="#354000" d="M70,232h10v3H70V232z"/>
			<path fill="#FFFFFF" d="M70,231h10v1H70V231z"/>
		</g>
	</g>
	<g>
		<g>
			<path fill="#8B5700" d="M-60,286h10v5h-10V286z"/>
			<path fill="#354000" d="M-60,278h10v8h-10V278z"/>
			<path fill="#D0C300" d="M-60,275h10v3h-10V275z"/>
		</g>
		<g>
			<path fill="#8B5700" d="M-48.2,288h10v3h-10V288z"/>
			<path fill="#BCF300" d="M-48.2,287h10v1h-10V287z"/>
			<path fill="#354000" d="M-48.2,284h10v3h-10V284z"/>
			<path fill="#B48B00" d="M-48.2,281h10v3h-10V281z"/>
		</g>
		<g>
			<path fill="#8B5700" d="M-36.4,284h10v7h-10V284z"/>
			<path fill="#BCF300" d="M-36.4,283h10v1h-10V283z"/>
			<path fill="#354000" d="M-36.4,280h10v3h-10V280z"/>
			<path fill="#5FE600" d="M-36.4,278h10v2h-10V278z"/>
			<path fill="#B48B00" d="M-36.4,276h10v2h-10V276z"/>
		</g>
		<g>
			<path fill="#ABAF00" d="M-24.5,290h10v1h-10V290z"/>
			<path fill="#8B5700" d="M-24.5,284h10v6h-10V284z"/>
			<path fill="#BCF300" d="M-24.5,283h10v1h-10V283z"/>
			<path fill="#354000" d="M-24.5,282h10v1h-10V282z"/>
			<path fill="#D0C300" d="M-24.5,281h10v1h-10V281z"/>
		</g>
		<g>
			<path fill="#8B5700" d="M-12.7,285h10v6h-10V285z"/>
			<path fill="#BCF300" d="M-12.7,284h10v1h-10V284z"/>
			<path fill="#354000" d="M-12.7,283h10v1h-10V283z"/>
		</g>
		<g>
			<path fill="#8B5700" d="M-0.9,283h10v8h-10V283z"/>
			<path fill="#D0C300" d="M-0.9,281h10v2h-10V281z"/>
		</g>
		<g>
			<path fill="#8B5700" d="M10.9,286h10v5h-10V286z"/>
			<path fill="#BCF300" d="M10.9,285h10v1h-10V285z"/>
			<path fill="#5FE600" d="M10.9,284h10v1h-10V284z"/>
			<path fill="#B48B00" d="M10.9,283h10v1h-10V283z"/>
		</g>
		<g>
			<path fill="#8B5700" d="M22.7,284h10v7h-10V284z"/>
			<path fill="#354000" d="M22.7,283h10v1h-10V283z"/>
			<path fill="#D0C300" d="M22.7,282h10v1h-10V282z"/>
			<path fill="#B48B00" d="M22.7,281h10v1h-10V281z"/>
		</g>
		<g>
			<path fill="#8B5700" d="M34.5,282h10v9h-10V282z"/>
			<path fill="#354000" d="M34.5,280h10v2h-10V280z"/>
			<path fill="#B48B00" d="M34.5,279h10v1h-10V279z"/>
		</g>
		<g>
			<path fill="#8B5700" d="M46.4,287h10v4h-10V287z"/>
			<path fill="#354000" d="M46.4,285h10v2h-10V285z"/>
			<path fill="#D0C300" d="M46.4,284h10v1h-10V284z"/>
			<path fill="#B48B00" d="M46.4,283h10v1h-10V283z"/>
		</g>
		<g>
			<path fill="#8B5700" d="M58.2,289h10v2h-10V289z"/>
			<path fill="#BCF300" d="M58.2,288h10v1h-10V288z"/>
			<path fill="#FFFFFF" d="M58.2,287h10v1h-10V287z"/>
			<path fill="#B48B00" d="M58.2,283h10v4h-10V283z"/>
		</g>
		<g>
			<path fill="#ABAF00" d="M70,290h10v1H70V290z"/>
			<path fill="#354000" d="M70,284h10v6H70V284z"/>
			<path fill="#D0C300" d="M70,283h10v1H70V283z"/>
			<path fill="#888400" d="M70,282h10v1H70V282z"/>
			<path fill="#B48B00" d="M70,281h10v1H70V281z"/>
		</g>
	</g>
	<g>
		<g>
			<path fill="#BCF300" d="M-60,338h10v1h-10V338z"/>
			<path fill="#354000" d="M-60,332h10v6h-10V332z"/>
			<path fill="#D0C300" d="M-60,330h10v2h-10V330z"/>
			<path fill="#888400" d="M-60,329h10v1h-10V329z"/>
			<path fill="#B48B00" d="M-60,328h10v1h-10V328z"/>
		</g>
		<g>
			<path fill="#354000" d="M-48.2,332h10v7h-10V332z"/>
			<path fill="#D0C300" d="M-48.2,331h10v1h-10V331z"/>
		</g>
		<g>
			<path fill="#BCF300" d="M-36.4,338h10v1h-10V338z"/>
			<path fill="#354000" d="M-36.4,325h10v13h-10V325z"/>
			<path fill="#B48B00" d="M-36.4,323h10v2h-10V323z"/>
		</g>
		<g>
			<path fill="#354000" d="M-24.5,331h10v8h-10V331z"/>
			<path fill="#888400" d="M-24.5,330h10v1h-10V330z"/>
			<path fill="#B48B00" d="M-24.5,329h10v1h-10V329z"/>
		</g>
		<g>
			<path fill="#354000" d="M-12.7,333h10v6h-10V333z"/>
			<path fill="#888400" d="M-12.7,332h10v1h-10V332z"/>
			<path fill="#B48B00" d="M-12.7,329h10v3h-10V329z"/>
		</g>
		<g>
			<path fill="#354000" d="M-0.9,331h10v8h-10V331z"/>
			<path fill="#D0C300" d="M-0.9,330h10v1h-10V330z"/>
			<path fill="#888400" d="M-0.9,329h10v1h-10V329z"/>
			<path fill="#B48B00" d="M-0.9,326h10v3h-10V326z"/>
		</g>
		<g>
			<path fill="#ABAF00" d="M10.9,338h10v1h-10V338z"/>
			<path fill="#354000" d="M10.9,333h10v5h-10V333z"/>
			<path fill="#5FE600" d="M10.9,332h10v1h-10V332z"/>
			<path fill="#B48B00" d="M10.9,326h10v6h-10V326z"/>
		</g>
		<g>
			<path fill="#354000" d="M22.7,334h10v5h-10V334z"/>
			<path fill="#5FE600" d="M22.7,333h10v1h-10V333z"/>
			<path fill="#B48B00" d="M22.7,325h10v8h-10V325z"/>
		</g>
		<g>
			<path fill="#354000" d="M34.5,338h10v1h-10V338z"/>
			<path fill="#B48B00" d="M34.5,333h10v5h-10V333z"/>
		</g>
		<g>
			<path fill="#ABAF00" d="M46.4,338h10v1h-10V338z"/>
			<path fill="#354000" d="M46.4,334h10v4h-10V334z"/>
			<path fill="#B48B00" d="M46.4,328h10v6h-10V328z"/>
		</g>
		<g>
			<path fill="#5FE600" d="M58.2,336h10v3h-10V336z"/>
			<path fill="#B48B00" d="M58.2,327h10v9h-10V327z"/>
		</g>
		<g>
			<path fill="#354000" d="M70,337h10v2H70V337z"/>
			<path fill="#D0C300" d="M70,336h10v1H70V336z"/>
			<path fill="#5FE600" d="M70,333h10v3H70V333z"/>
			<path fill="#B48B00" d="M70,328h10v5H70V328z"/>
		</g>
	</g>
	<g>
		<g>
			<path fill="#D0C300" d="M-60,383h10v4h-10V383z"/>
			<path fill="#B48B00" d="M-60,380h10v3h-10V380z"/>
		</g>
		<g>
			<path fill="#B48B00" d="M-48.2,386h10v1h-10V386z"/>
		</g>
	</g>
	<path d="M193,120.3h10.7V119l-2.1-3.2l-1,0.7l1.5,2.4H193V120.3z M193.8,123.5l-1.1,0.3c1.1,3.9,2.8,5.7,7.1,5.7
		c2.5,0,4.2-1.3,4.2-3.5c0-1.9-1.3-3.4-3.5-3.4c-2.1,0-3.4,1.3-3.4,2.9c0,1.1,0.5,1.9,1.2,2.4l0,0
		C195.9,127.8,194.5,126.1,193.8,123.5z M198,125.9c0-1,0.7-1.8,2.3-1.8c1.5,0,2.4,0.8,2.4,1.9c0,1.2-0.9,2-3.3,2
		C198.6,127.5,198,126.8,198,125.9z M200.8,137.3c1.8,0,3-1.2,3-3.2c0-1.3-0.5-2.4-1.6-3.2l-0.8,1c0.8,0.7,1.2,1.3,1.2,2.2
		c0,1-0.7,1.8-1.9,1.8c-1.7,0-2.8-0.9-6.6-4.7H193v6.3l1.2,0.2v-4.8C197.4,136,198.9,137.3,200.8,137.3z M202.6,144.8h1.1v-6.2h-1.2
		v4.7l-9.2-3.9l-0.4,1.4L202.6,144.8z"/>
	<path d="M193,163.9h10.7v-1.3l-2.1-3.2l-1,0.7l1.5,2.4H193V163.9z M193.8,167.1l-1.1,0.3c1.1,3.9,2.8,5.7,7.1,5.7
		c2.5,0,4.2-1.3,4.2-3.5c0-1.9-1.3-3.4-3.5-3.4c-2.1,0-3.4,1.3-3.4,2.9c0,1.1,0.5,1.9,1.2,2.4l0,0
		C195.9,171.4,194.5,169.7,193.8,167.1z M198,169.5c0-1,0.7-1.8,2.3-1.8c1.5,0,2.4,0.8,2.4,1.9c0,1.2-0.9,2-3.3,2
		C198.6,171.1,198,170.4,198,169.5z M200.8,180.9c1.8,0,3-1.2,3-3.2c0-1.3-0.5-2.4-1.6-3.2l-0.8,1c0.8,0.7,1.2,1.3,1.2,2.2
		c0,1-0.7,1.8-1.9,1.8c-1.7,0-2.8-0.9-6.6-4.7H193v6.3l1.2,0.2v-4.8C197.4,179.6,198.9,180.9,200.8,180.9z M201.1,189.7
		c1.9,0,2.7-1.6,2.7-3.2c0-1.4-0.8-3.2-2.8-3.2c-1.1,0-1.9,0.5-2.5,1.7c-0.6-1.3-1.5-2.1-2.8-2.1c-1.8,0-3,1.5-3,3.7
		c0,2.2,1.3,3.7,3.1,3.7c1.3,0,2.3-0.8,2.9-2.3C199.4,189.1,200.2,189.7,201.1,189.7z M195.8,188.6c-1,0-1.9-0.8-1.9-2.2
		c0-1.3,0.7-2.1,1.9-2.1c1.3,0,2,0.7,2.4,1.6C197.6,187.5,197.3,188.6,195.8,188.6z M201.1,184.6c1.1,0,1.7,0.7,1.7,1.8
		c0,1.1-0.7,1.8-1.7,1.8c-0.9,0-1.5-0.4-2-1.4C199.5,185.4,200,184.6,201.1,184.6z"/>
	<path d="M193,208.6h10.7v-1.3l-2.1-3.2l-1,0.7l1.5,2.4H193V208.6z M193.8,211.7l-1.1,0.3c1.1,3.9,2.8,5.7,7.1,5.7
		c2.5,0,4.2-1.3,4.2-3.5c0-1.9-1.3-3.4-3.5-3.4c-2.1,0-3.4,1.3-3.4,2.9c0,1.1,0.5,1.9,1.2,2.4l0,0
		C195.9,216.1,194.5,214.4,193.8,211.7z M198,214.1c0-1,0.7-1.8,2.3-1.8c1.5,0,2.4,0.8,2.4,1.9c0,1.2-0.9,2-3.3,2
		C198.6,215.8,198,215.1,198,214.1z M200.8,225.6c1.8,0,3-1.2,3-3.2c0-1.3-0.5-2.4-1.6-3.2l-0.8,1c0.8,0.7,1.2,1.3,1.2,2.2
		c0,1-0.7,1.8-1.9,1.8c-1.7,0-2.8-0.9-6.6-4.7H193v6.3l1.2,0.2V221C197.4,224.3,198.9,225.6,200.8,225.6z M193.8,228.3l-1.1,0.3
		c1.1,3.9,2.8,5.7,7.1,5.7c2.5,0,4.2-1.3,4.2-3.5c0-1.9-1.3-3.4-3.5-3.4c-2.1,0-3.4,1.3-3.4,2.9c0,1.1,0.5,1.9,1.2,2.4l0,0
		C195.9,232.7,194.5,230.9,193.8,228.3z M198,230.7c0-1,0.7-1.8,2.3-1.8c1.5,0,2.4,0.8,2.4,1.9c0,1.2-0.9,2-3.3,2
		C198.6,232.3,198,231.6,198,230.7z"/>
	<path d="M193,252.8h10.7v-1.3l-2.1-3.2l-1,0.7l1.5,2.4H193V252.8z M193.8,256l-1.1,0.3c1.1,3.9,2.8,5.7,7.1,5.7
		c2.5,0,4.2-1.3,4.2-3.5c0-1.9-1.3-3.4-3.5-3.4c-2.1,0-3.4,1.3-3.4,2.9c0,1.1,0.5,1.9,1.2,2.4l0,0
		C195.9,260.3,194.5,258.6,193.8,256z M198,258.4c0-1,0.7-1.8,2.3-1.8c1.5,0,2.4,0.8,2.4,1.9c0,1.2-0.9,2-3.3,2
		C198.6,260,198,259.3,198,258.4z M196.1,270c1.6,0,2.4-1.1,2.6-2.3l0.1,0c0.2,1.1,1.1,2,2.4,2c1.4,0,2.7-1.1,2.7-3.2
		c0-1.1-0.4-2.1-1.3-3.1l-0.9,0.8c0.7,0.7,1,1.4,1,2.2c0,1.1-0.6,1.8-1.6,1.8c-1.2,0-1.9-0.9-1.9-1.9v-0.4l-1.1-0.2v0.7
		c0,1.3-0.4,2.1-1.9,2.1c-1.3,0-2.1-0.8-2.1-2.2c0-0.9,0.3-1.6,1.1-2.2l-0.8-1c-1,0.8-1.5,2-1.5,3.2
		C192.8,268.6,194.2,270,196.1,270z M198.3,273.4c3.1,0,4.4,0.7,4.4,2c0,1.3-1.2,2-4.4,2c-3.2,0-4.4-0.7-4.4-2
		C194,274.1,195.2,273.4,198.3,273.4z M198.3,279c3.5,0,5.5-1.2,5.5-3.6c0-2.4-2-3.6-5.5-3.6c-3.6,0-5.5,1.2-5.5,3.6
		C192.8,277.8,194.8,279,198.3,279z"/>
	<path d="M193,298.8h10.7v-1.3l-2.1-3.2l-1,0.7l1.5,2.4H193V298.8z M193.8,302l-1.1,0.3c1.1,3.9,2.8,5.7,7.1,5.7
		c2.5,0,4.2-1.3,4.2-3.5c0-1.9-1.3-3.4-3.5-3.4c-2.1,0-3.4,1.3-3.4,2.9c0,1.1,0.5,1.9,1.2,2.4l0,0
		C195.9,306.4,194.5,304.6,193.8,302z M198,304.4c0-1,0.7-1.8,2.3-1.8c1.5,0,2.4,0.8,2.4,1.9c0,1.2-0.9,2-3.3,2
		C198.6,306,198,305.3,198,304.4z M196.1,316.1c1.6,0,2.4-1.1,2.6-2.3l0.1,0c0.2,1.1,1.1,2,2.4,2c1.4,0,2.7-1.1,2.7-3.2
		c0-1.1-0.4-2.1-1.3-3.1l-0.9,0.8c0.7,0.7,1,1.4,1,2.2c0,1.1-0.6,1.8-1.6,1.8c-1.2,0-1.9-0.9-1.9-1.9v-0.4l-1.1-0.2v0.7
		c0,1.3-0.4,2.1-1.9,2.1c-1.3,0-2.1-0.8-2.1-2.2c0-0.9,0.3-1.6,1.1-2.2l-0.8-1c-1,0.8-1.5,2-1.5,3.2
		C192.8,314.7,194.2,316.1,196.1,316.1z M193,321.8h10.7v-1.3l-2.1-3.2l-1,0.7l1.5,2.4H193V321.8z"/>
	<path d="M193,342.1h10.7v-1.3l-2.1-3.2l-1,0.7l1.5,2.4H193V342.1z M193.8,345.3l-1.1,0.3c1.1,3.9,2.8,5.7,7.1,5.7
		c2.5,0,4.2-1.3,4.2-3.5c0-1.9-1.3-3.4-3.5-3.4c-2.1,0-3.4,1.3-3.4,2.9c0,1.1,0.5,1.9,1.2,2.4l0,0
		C195.9,349.7,194.5,347.9,193.8,345.3z M198,347.7c0-1,0.7-1.8,2.3-1.8c1.5,0,2.4,0.8,2.4,1.9c0,1.2-0.9,2-3.3,2
		C198.6,349.3,198,348.6,198,347.7z M196.1,359.4c1.6,0,2.4-1.1,2.6-2.3l0.1,0c0.2,1.1,1.1,2,2.4,2c1.4,0,2.7-1.1,2.7-3.2
		c0-1.1-0.4-2.1-1.3-3.1l-0.9,0.8c0.7,0.7,1,1.4,1,2.2c0,1.1-0.6,1.8-1.6,1.8c-1.2,0-1.9-0.9-1.9-1.9v-0.4L198,355v0.7
		c0,1.3-0.4,2.1-1.9,2.1c-1.3,0-2.1-0.8-2.1-2.2c0-0.9,0.3-1.6,1.1-2.2l-0.8-1c-1,0.8-1.5,2-1.5,3.2
		C192.8,357.9,194.2,359.4,196.1,359.4z M200.8,367.2c1.8,0,3-1.2,3-3.2c0-1.3-0.5-2.4-1.6-3.2l-0.8,1c0.8,0.7,1.2,1.3,1.2,2.2
		c0,1-0.7,1.8-1.9,1.8c-1.7,0-2.8-0.9-6.6-4.7H193v6.3l1.2,0.2v-4.8C197.4,365.9,198.9,367.2,200.8,367.2z"/>
	<path d="M193,386.6h10.7v-1.3l-2.1-3.2l-1,0.7l1.5,2.4H193V386.6z M193.8,389.8l-1.1,0.3c1.1,3.9,2.8,5.7,7.1,5.7
		c2.5,0,4.2-1.3,4.2-3.5c0-1.9-1.3-3.4-3.5-3.4c-2.1,0-3.4,1.3-3.4,2.9c0,1.1,0.5,1.9,1.2,2.4l0,0
		C195.9,394.1,194.5,392.4,193.8,389.8z M198,392.2c0-1,0.7-1.8,2.3-1.8c1.5,0,2.4,0.8,2.4,1.9c0,1.2-0.9,2-3.3,2
		C198.6,393.8,198,393.1,198,392.2z M196.1,403.8c1.6,0,2.4-1.1,2.6-2.3l0.1,0c0.2,1.1,1.1,2,2.4,2c1.4,0,2.7-1.1,2.7-3.2
		c0-1.1-0.4-2.1-1.3-3.1l-0.9,0.8c0.7,0.7,1,1.4,1,2.2c0,1.1-0.6,1.8-1.6,1.8c-1.2,0-1.9-0.9-1.9-1.9v-0.4l-1.1-0.2v0.7
		c0,1.3-0.4,2.1-1.9,2.1c-1.3,0-2.1-0.8-2.1-2.2c0-0.9,0.3-1.6,1.1-2.2l-0.8-1c-1,0.8-1.5,2-1.5,3.2
		C192.8,402.4,194.2,403.8,196.1,403.8z M196.1,411.9c1.6,0,2.4-1.1,2.6-2.3l0.1,0c0.2,1.1,1.1,2,2.4,2c1.4,0,2.7-1.1,2.7-3.2
		c0-1.1-0.4-2.1-1.3-3.1l-0.9,0.8c0.7,0.7,1,1.4,1,2.2c0,1.1-0.6,1.8-1.6,1.8c-1.2,0-1.9-0.9-1.9-1.9v-0.4l-1.1-0.2v0.7
		c0,1.3-0.4,2.1-1.9,2.1c-1.3,0-2.1-0.8-2.1-2.2c0-0.9,0.3-1.6,1.1-2.2l-0.8-1c-1,0.8-1.5,2-1.5,3.2
		C192.8,410.4,194.2,411.9,196.1,411.9z"/>
	<path d="M193,430.7h10.7v-1.3l-2.1-3.2l-1,0.7l1.5,2.4H193V430.7z M193.8,433.8l-1.1,0.3c1.1,3.9,2.8,5.7,7.1,5.7
		c2.5,0,4.2-1.3,4.2-3.5c0-1.9-1.3-3.4-3.5-3.4c-2.1,0-3.4,1.3-3.4,2.9c0,1.1,0.5,1.9,1.2,2.4l0,0
		C195.9,438.2,194.5,436.5,193.8,433.8z M198,436.3c0-1,0.7-1.8,2.3-1.8c1.5,0,2.4,0.8,2.4,1.9c0,1.2-0.9,2-3.3,2
		C198.6,437.9,198,437.2,198,436.3z M196.1,447.9c1.6,0,2.4-1.1,2.6-2.3l0.1,0c0.2,1.1,1.1,2,2.4,2c1.4,0,2.7-1.1,2.7-3.2
		c0-1.1-0.4-2.1-1.3-3.1l-0.9,0.8c0.7,0.7,1,1.4,1,2.2c0,1.1-0.6,1.8-1.6,1.8c-1.2,0-1.9-0.9-1.9-1.9v-0.4l-1.1-0.2v0.7
		c0,1.3-0.4,2.1-1.9,2.1c-1.3,0-2.1-0.8-2.1-2.2c0-0.9,0.3-1.6,1.1-2.2l-0.8-1c-1,0.8-1.5,2-1.5,3.2
		C192.8,446.5,194.2,447.9,196.1,447.9z M195.6,456.7h1.2v-1.4h2.9V454l-2.9-0.1V451l6.5,2.8l0.5-1.2l-7.2-3.1h-1.1v4.4H193v1.4h2.6
		V456.7z"/>
	<path d="M193,475.3h10.7V474l-2.1-3.2l-1,0.7l1.5,2.4H193V475.3z M193.8,478.5l-1.1,0.3c1.1,3.9,2.8,5.7,7.1,5.7
		c2.5,0,4.2-1.3,4.2-3.5c0-1.9-1.3-3.4-3.5-3.4c-2.1,0-3.4,1.3-3.4,2.9c0,1.1,0.5,1.9,1.2,2.4l0,0
		C195.9,482.9,194.5,481.1,193.8,478.5z M198,480.9c0-1,0.7-1.8,2.3-1.8c1.5,0,2.4,0.8,2.4,1.9c0,1.2-0.9,2-3.3,2
		C198.6,482.5,198,481.8,198,480.9z M196.1,492.6c1.6,0,2.4-1.1,2.6-2.3l0.1,0c0.2,1.1,1.1,2,2.4,2c1.4,0,2.7-1.1,2.7-3.2
		c0-1.1-0.4-2.1-1.3-3.1l-0.9,0.8c0.7,0.7,1,1.4,1,2.2c0,1.1-0.6,1.8-1.6,1.8c-1.2,0-1.9-0.9-1.9-1.9v-0.4l-1.1-0.2v0.7
		c0,1.3-0.4,2.1-1.9,2.1c-1.3,0-2.1-0.8-2.1-2.2c0-0.9,0.3-1.6,1.1-2.2l-0.8-1c-1,0.8-1.5,2-1.5,3.2
		C192.8,491.1,194.2,492.6,196.1,492.6z M196.4,500.9c2.1,0,3.4-1.2,3.4-3c0-0.5-0.1-1.1-0.4-1.6h3.1v4.2l1.2,0.2v-5.8h-5.4v1.2
		c0.2,0.5,0.4,0.9,0.4,1.4c0,1.1-0.6,2-2.2,2c-1.5,0-2.4-0.8-2.4-2.2c0-0.8,0.3-1.6,1.1-2.2l-0.8-1c-1,0.9-1.4,1.9-1.4,3.2
		C192.8,499.4,194.3,500.9,196.4,500.9z"/>
	<path d="M193,519.6h10.7v-1.3l-2.1-3.2l-1,0.7l1.5,2.4H193V519.6z M193.8,522.8l-1.1,0.3c1.1,3.9,2.8,5.7,7.1,5.7
		c2.5,0,4.2-1.3,4.2-3.5c0-1.9-1.3-3.4-3.5-3.4c-2.1,0-3.4,1.3-3.4,2.9c0,1.1,0.5,1.9,1.2,2.4l0,0
		C195.9,527.1,194.5,525.4,193.8,522.8z M198,525.2c0-1,0.7-1.8,2.3-1.8c1.5,0,2.4,0.8,2.4,1.9c0,1.2-0.9,2-3.3,2
		C198.6,526.8,198,526.1,198,525.2z M196.1,536.8c1.6,0,2.4-1.1,2.6-2.3l0.1,0c0.2,1.1,1.1,2,2.4,2c1.4,0,2.7-1.1,2.7-3.2
		c0-1.1-0.4-2.1-1.3-3.1l-0.9,0.8c0.7,0.7,1,1.4,1,2.2c0,1.1-0.6,1.8-1.6,1.8c-1.2,0-1.9-0.9-1.9-1.9v-0.4l-1.1-0.2v0.7
		c0,1.3-0.4,2.1-1.9,2.1c-1.3,0-2.1-0.8-2.1-2.2c0-0.9,0.3-1.6,1.1-2.2l-0.8-1c-1,0.8-1.5,2-1.5,3.2
		C192.8,535.4,194.2,536.8,196.1,536.8z M203.2,544.8c0.4-0.6,0.6-1.3,0.6-2.2c0-2.5-2.3-4-5.8-4c-3.1,0-5.3,1-5.3,3.6
		c0,1.8,1.5,3.4,3.8,3.4c2.3,0,3.4-1.4,3.4-2.9c0-0.9-0.4-1.8-1.4-2.5c2.4,0.1,4.1,1,4.1,2.5c0,0.5-0.1,1.1-0.5,1.6L203.2,544.8z
		 M198.9,542.3c0,1-0.6,1.7-2.3,1.7c-1.6,0-2.6-0.7-2.6-1.9c0-1.4,1.1-2,3.4-2.1C198.3,540.6,198.9,541.4,198.9,542.3z"/>
	<g>
		<g>
			<path fill="#8B5700" d="M240,145h10v2h-10V145z"/>
			<path fill="#B48B00" d="M240,143h10v2h-10V143z"/>
		</g>
		<g>
			<path fill="#8B5700" d="M251.8,146h10v1h-10V146z"/>
			<path fill="#354000" d="M251.8,144h10v2h-10V144z"/>
		</g>
		<g>
			<path fill="#8B5700" d="M263.6,146h10v1h-10V146z"/>
			<path fill="#B48B00" d="M263.6,144h10v2h-10V144z"/>
		</g>
		<g>
			<path fill="#8B5700" d="M275.5,146h10v1h-10V146z"/>
			<path fill="#354000" d="M275.5,145h10v1h-10V145z"/>
		</g>
		<g>
			<path fill="#8B5700" d="M287.3,146h10v1h-10V146z"/>
		</g>
		<g>
			<path fill="#354000" d="M334.5,146h10v1h-10V146z"/>
			<path fill="#D0C300" d="M334.5,145h10v1h-10V145z"/>
			<path fill="#B48B00" d="M334.5,142h10v3h-10V142z"/>
		</g>
		<g>
			<path fill="#8B5700" d="M346.4,145h10v2h-10V145z"/>
			<path fill="#B48B00" d="M346.4,144h10v1h-10V144z"/>
		</g>
		<g>
			<path fill="#8B5700" d="M358.2,145h10v2h-10V145z"/>
			<path fill="#FFFFFF" d="M358.2,144h10v1h-10V144z"/>
			<path fill="#B48B00" d="M358.2,143h10v1h-10V143z"/>
		</g>
		<g>
			<path fill="#8B5700" d="M370,144h10v3h-10V144z"/>
			<path fill="#354000" d="M370,143h10v1h-10V143z"/>
		</g>
	</g>
	<g>
		<g>
			<path fill="#8B5700" d="M240,190.4h10v1h-10V190.4z"/>
			<path fill="#B48B00" d="M240,189.4h10v1h-10V189.4z"/>
		</g>
		<g>
			<path fill="#354000" d="M251.8,189.4h10v2h-10V189.4z"/>
			<path fill="#B48B00" d="M251.8,188.4h10v1h-10V188.4z"/>
		</g>
		<g>
			<path fill="#4D6900" d="M263.6,190.4h10v1h-10V190.4z"/>
			<path fill="#354000" d="M263.6,189.4h10v1h-10V189.4z"/>
			<path fill="#B48B00" d="M263.6,188.4h10v1h-10V188.4z"/>
		</g>
		<g>
			<path fill="#8B5700" d="M275.5,190.4h10v1h-10V190.4z"/>
			<path fill="#354000" d="M275.5,189.4h10v1h-10V189.4z"/>
			<path fill="#B48B00" d="M275.5,187.4h10v2h-10V187.4z"/>
		</g>
		<g>
			<path fill="#354000" d="M287.3,190.4h10v1h-10V190.4z"/>
			<path fill="#B48B00" d="M287.3,188.4h10v2h-10V188.4z"/>
		</g>
		<g>
			<path fill="#8B5700" d="M299.1,189.4h10v2h-10V189.4z"/>
			<path fill="#354000" d="M299.1,188.4h10v1h-10V188.4z"/>
			<path fill="#B48B00" d="M299.1,187.4h10v1h-10V187.4z"/>
		</g>
		<g>
			<path fill="#354000" d="M334.5,190.4h10v1h-10V190.4z"/>
		</g>
		<g>
			<path fill="#354000" d="M346.4,190.4h10v1h-10V190.4z"/>
			<path fill="#B48B00" d="M346.4,189.4h10v1h-10V189.4z"/>
		</g>
		<g>
			<path fill="#8B5700" d="M358.2,189.4h10v2h-10V189.4z"/>
			<path fill="#354000" d="M358.2,187.4h10v2h-10V187.4z"/>
			<path fill="#B48B00" d="M358.2,186.4h10v1h-10V186.4z"/>
		</g>
		<g>
			<path fill="#8B5700" d="M370,190.4h10v1h-10V190.4z"/>
			<path fill="#B48B00" d="M370,187.4h10v3h-10V187.4z"/>
		</g>
	</g>
	<g>
		<g>
			<path fill="#8B5700" d="M240,234.9h10v1h-10V234.9z"/>
			<path fill="#B48B00" d="M240,232.9h10v2h-10V232.9z"/>
		</g>
		<g>
			<path fill="#B48B00" d="M251.8,231.9h10v4h-10V231.9z"/>
		</g>
		<g>
			<path fill="#8B5700" d="M263.6,233.9h10v2h-10V233.9z"/>
			<path fill="#B48B00" d="M263.6,228.9h10v5h-10V228.9z"/>
		</g>
		<g>
			<path fill="#4D6900" d="M275.5,233.9h10v2h-10V233.9z"/>
			<path fill="#B48B00" d="M275.5,231.9h10v2h-10V231.9z"/>
		</g>
		<g>
			<path fill="#8B5700" d="M287.3,234.9h10v1h-10V234.9z"/>
			<path fill="#354000" d="M287.3,232.9h10v2h-10V232.9z"/>
			<path fill="#B48B00" d="M287.3,231.9h10v1h-10V231.9z"/>
		</g>
		<g>
			<path fill="#8B5700" d="M299.1,234.9h10v1h-10V234.9z"/>
			<path fill="#354000" d="M299.1,233.9h10v1h-10V233.9z"/>
		</g>
		<g>
			<path fill="#8B5700" d="M334.5,234.9h10v1h-10V234.9z"/>
		</g>
		<g>
			<path fill="#8B5700" d="M346.4,232.9h10v3h-10V232.9z"/>
			<path fill="#B48B00" d="M346.4,231.9h10v1h-10V231.9z"/>
		</g>
		<g>
			<path fill="#8B5700" d="M358.2,232.9h10v3h-10V232.9z"/>
			<path fill="#354000" d="M358.2,231.9h10v1h-10V231.9z"/>
			<path fill="#B48B00" d="M358.2,230.9h10v1h-10V230.9z"/>
		</g>
		<g>
			<path fill="#8B5700" d="M370,232.9h10v3h-10V232.9z"/>
		</g>
	</g>
	<g>
		<g>
			<path fill="#8B5700" d="M240,277.3h10v3h-10V277.3z"/>
			<path fill="#FFFFFF" d="M240,276.3h10v1h-10V276.3z"/>
		</g>
		<g>
			<path fill="#8B5700" d="M251.8,278.3h10v2h-10V278.3z"/>
			<path fill="#4D6900" d="M251.8,277.3h10v1h-10V277.3z"/>
		</g>
		<g>
			<path fill="#8B5700" d="M263.6,279.3h10v1h-10V279.3z"/>
			<path fill="#354000" d="M263.6,276.3h10v3h-10V276.3z"/>
		</g>
		<g>
			<path fill="#B48B00" d="M275.5,276.3h10v4h-10V276.3z"/>
		</g>
		<g>
			<path fill="#8B5700" d="M287.3,279.3h10v1h-10V279.3z"/>
			<path fill="#B48B00" d="M287.3,277.3h10v2h-10V277.3z"/>
		</g>
		<g>
			<path fill="#8B5700" d="M334.5,279.3h10v1h-10V279.3z"/>
			<path fill="#354000" d="M334.5,278.3h10v1h-10V278.3z"/>
			<path fill="#B48B00" d="M334.5,276.3h10v2h-10V276.3z"/>
		</g>
		<g>
			<path fill="#8B5700" d="M346.4,278.3h10v2h-10V278.3z"/>
			<path fill="#354000" d="M346.4,276.3h10v2h-10V276.3z"/>
			<path fill="#B48B00" d="M346.4,275.3h10v1h-10V275.3z"/>
		</g>
		<g>
			<path fill="#8B5700" d="M358.2,275.3h10v5h-10V275.3z"/>
		</g>
		<g>
			<path fill="#8B5700" d="M370,276.3h10v4h-10V276.3z"/>
		</g>
	</g>
	<g>
		<g>
			<path fill="#8B5700" d="M240,317.8h10v7h-10V317.8z"/>
			<path fill="#B48B00" d="M240,316.8h10v1h-10V316.8z"/>
		</g>
		<g>
			<path fill="#8B5700" d="M251.8,320.8h10v4h-10V320.8z"/>
			<path fill="#354000" d="M251.8,319.8h10v1h-10V319.8z"/>
		</g>
		<g>
			<path fill="#8B5700" d="M263.6,321.8h10v3h-10V321.8z"/>
			<path fill="#354000" d="M263.6,318.8h10v3h-10V318.8z"/>
		</g>
		<g>
			<path fill="#8B5700" d="M275.5,321.8h10v3h-10V321.8z"/>
			<path fill="#354000" d="M275.5,319.8h10v2h-10V319.8z"/>
			<path fill="#B48B00" d="M275.5,318.8h10v1h-10V318.8z"/>
		</g>
		<g>
			<path fill="#8B5700" d="M287.3,319.8h10v5h-10V319.8z"/>
			<path fill="#354000" d="M287.3,317.8h10v2h-10V317.8z"/>
			<path fill="#B48B00" d="M287.3,315.8h10v2h-10V315.8z"/>
		</g>
		<g>
			<path fill="#8B5700" d="M299.1,320.8h10v4h-10V320.8z"/>
			<path fill="#FFFFFF" d="M299.1,319.8h10v1h-10V319.8z"/>
		</g>
		<g>
			<path fill="#8B5700" d="M334.5,318.8h10v6h-10V318.8z"/>
			<path fill="#FFFFFF" d="M334.5,316.8h10v2h-10V316.8z"/>
		</g>
		<g>
			<path fill="#8B5700" d="M346.4,319.8h10v5h-10V319.8z"/>
			<path fill="#354000" d="M346.4,316.8h10v3h-10V316.8z"/>
		</g>
		<g>
			<path fill="#8B5700" d="M358.2,319.8h10v5h-10V319.8z"/>
			<path fill="#354000" d="M358.2,317.8h10v2h-10V317.8z"/>
		</g>
		<g>
			<path fill="#8B5700" d="M370,319.8h10v5h-10V319.8z"/>
			<path fill="#B48B00" d="M370,318.8h10v1h-10V318.8z"/>
		</g>
	</g>
	<g>
		<g>
			<path fill="#8B5700" d="M240,359.2h10v10h-10V359.2z"/>
		</g>
		<g>
			<path fill="#8B5700" d="M251.8,364.2h10v5h-10V364.2z"/>
			<path fill="#354000" d="M251.8,361.2h10v3h-10V361.2z"/>
			<path fill="#FFFFFF" d="M251.8,360.2h10v1h-10V360.2z"/>
		</g>
		<g>
			<path fill="#8B5700" d="M263.6,362.2h10v7h-10V362.2z"/>
			<path fill="#FFFFFF" d="M263.6,361.2h10v1h-10V361.2z"/>
		</g>
		<g>
			<path fill="#8B5700" d="M275.5,365.2h10v4h-10V365.2z"/>
			<path fill="#4D6900" d="M275.5,363.2h10v2h-10V363.2z"/>
			<path fill="#354000" d="M275.5,362.2h10v1h-10V362.2z"/>
			<path fill="#FFFFFF" d="M275.5,361.2h10v1h-10V361.2z"/>
		</g>
		<g>
			<path fill="#8B5700" d="M287.3,364.2h10v5h-10V364.2z"/>
			<path fill="#354000" d="M287.3,363.2h10v1h-10V363.2z"/>
		</g>
		<g>
			<path fill="#8B5700" d="M299.1,367.2h10v2h-10V367.2z"/>
			<path fill="#354000" d="M299.1,365.2h10v2h-10V365.2z"/>
		</g>
		<g>
			<path fill="#8B5700" d="M334.5,361.2h10v8h-10V361.2z"/>
		</g>
		<g>
			<path fill="#8B5700" d="M346.4,363.2h10v6h-10V363.2z"/>
			<path fill="#354000" d="M346.4,361.2h10v2h-10V361.2z"/>
		</g>
		<g>
			<path fill="#8B5700" d="M358.2,362.2h10v7h-10V362.2z"/>
			<path fill="#354000" d="M358.2,361.2h10v1h-10V361.2z"/>
		</g>
		<g>
			<path fill="#8B5700" d="M370,363.2h10v6h-10V363.2z"/>
			<path fill="#B48B00" d="M370,361.2h10v2h-10V361.2z"/>
		</g>
	</g>
	<g>
		<g>
			<path fill="#8B5700" d="M240,406.7h10v7h-10V406.7z"/>
		</g>
		<g>
			<path fill="#8B5700" d="M251.8,408.7h10v5h-10V408.7z"/>
			<path fill="#354000" d="M251.8,406.7h10v2h-10V406.7z"/>
		</g>
		<g>
			<path fill="#8B5700" d="M263.6,408.7h10v5h-10V408.7z"/>
		</g>
		<g>
			<path fill="#8B5700" d="M275.5,408.7h10v5h-10V408.7z"/>
		</g>
		<g>
			<path fill="#8B5700" d="M287.3,410.7h10v3h-10V410.7z"/>
			<path fill="#354000" d="M287.3,409.7h10v1h-10V409.7z"/>
			<path fill="#FFFFFF" d="M287.3,408.7h10v1h-10V408.7z"/>
		</g>
		<g>
			<path fill="#FFFFFF" d="M299.1,412.7h10v1h-10V412.7z"/>
		</g>
		<g>
			<path fill="#8B5700" d="M334.5,412.7h10v1h-10V412.7z"/>
		</g>
		<g>
			<path fill="#8B5700" d="M346.4,411.7h10v2h-10V411.7z"/>
			<path fill="#6AFE00" d="M346.4,409.7h10v2h-10V409.7z"/>
		</g>
		<g>
			<path fill="#8B5700" d="M358.2,409.7h10v4h-10V409.7z"/>
			<path fill="#354000" d="M358.2,407.7h10v2h-10V407.7z"/>
		</g>
		<g>
			<path fill="#8B5700" d="M370,412.7h10v1h-10V412.7z"/>
			<path fill="#4D6900" d="M370,410.7h10v2h-10V410.7z"/>
			<path fill="#354000" d="M370,406.7h10v4h-10V406.7z"/>
			<path fill="#B48B00" d="M370,404.7h10v2h-10V404.7z"/>
		</g>
	</g>
	<g>
		<g>
			<path fill="#8B5700" d="M240,454.1h10v4h-10V454.1z"/>
		</g>
		<g>
			<path fill="#8B5700" d="M251.8,457.1h10v1h-10V457.1z"/>
			<path fill="#4D6900" d="M251.8,455.1h10v2h-10V455.1z"/>
			<path fill="#354000" d="M251.8,454.1h10v1h-10V454.1z"/>
			<path fill="#6AFE00" d="M251.8,453.1h10v1h-10V453.1z"/>
			<path fill="#B48B00" d="M251.8,450.1h10v3h-10V450.1z"/>
		</g>
		<g>
			<path fill="#8B5700" d="M263.6,456.1h10v2h-10V456.1z"/>
			<path fill="#4D6900" d="M263.6,455.1h10v1h-10V455.1z"/>
			<path fill="#354000" d="M263.6,453.1h10v2h-10V453.1z"/>
			<path fill="#B48B00" d="M263.6,450.1h10v3h-10V450.1z"/>
		</g>
		<g>
			<path fill="#C64300" d="M275.5,457.1h10v1h-10V457.1z"/>
			<path fill="#4D6900" d="M275.5,456.1h10v1h-10V456.1z"/>
			<path fill="#354000" d="M275.5,454.1h10v2h-10V454.1z"/>
			<path fill="#B48B00" d="M275.5,452.1h10v2h-10V452.1z"/>
		</g>
		<g>
			<path fill="#C64300" d="M287.3,455.1h10v3h-10V455.1z"/>
			<path fill="#FFFFFF" d="M287.3,454.1h10v1h-10V454.1z"/>
			<path fill="#B48B00" d="M287.3,453.1h10v1h-10V453.1z"/>
		</g>
		<g>
			<path fill="#8B5700" d="M299.1,456.1h10v2h-10V456.1z"/>
			<path fill="#354000" d="M299.1,455.1h10v1h-10V455.1z"/>
		</g>
		<g>
			<path fill="#8B5700" d="M334.5,456.1h10v2h-10V456.1z"/>
		</g>
		<g>
			<path fill="#8B5700" d="M346.4,456.1h10v2h-10V456.1z"/>
			<path fill="#4D6900" d="M346.4,455.1h10v1h-10V455.1z"/>
			<path fill="#FFFFFF" d="M346.4,454.1h10v1h-10V454.1z"/>
			<path fill="#888400" d="M346.4,453.1h10v1h-10V453.1z"/>
			<path fill="#B48B00" d="M346.4,451.1h10v2h-10V451.1z"/>
		</g>
		<g>
			<path fill="#8B5700" d="M358.2,456.1h10v2h-10V456.1z"/>
			<path fill="#4D6900" d="M358.2,454.1h10v2h-10V454.1z"/>
			<path fill="#354000" d="M358.2,452.1h10v2h-10V452.1z"/>
			<path fill="#B48B00" d="M358.2,451.1h10v1h-10V451.1z"/>
		</g>
		<g>
			<path fill="#8B5700" d="M370,456.1h10v2h-10V456.1z"/>
			<path fill="#354000" d="M370,454.1h10v2h-10V454.1z"/>
		</g>
	</g>
	<g>
		<g>
			<path fill="#8B5700" d="M240,497.6h10v5h-10V497.6z"/>
			<path fill="#4D6900" d="M240,496.6h10v1h-10V496.6z"/>
			<path fill="#354000" d="M240,495.6h10v1h-10V495.6z"/>
			<path fill="#B48B00" d="M240,493.6h10v2h-10V493.6z"/>
		</g>
		<g>
			<path fill="#8B5700" d="M251.8,501.6h10v1h-10V501.6z"/>
			<path fill="#4D6900" d="M251.8,499.6h10v2h-10V499.6z"/>
			<path fill="#354000" d="M251.8,498.6h10v1h-10V498.6z"/>
		</g>
		<g>
			<path fill="#8B5700" d="M263.6,499.6h10v3h-10V499.6z"/>
			<path fill="#354000" d="M263.6,497.6h10v2h-10V497.6z"/>
		</g>
		<g>
			<path fill="#8B5700" d="M275.5,501.6h10v1h-10V501.6z"/>
			<path fill="#354000" d="M275.5,497.6h10v4h-10V497.6z"/>
		</g>
		<g>
			<path fill="#8B5700" d="M287.3,501.6h10v1h-10V501.6z"/>
			<path fill="#BCF300" d="M287.3,499.6h10v2h-10V499.6z"/>
			<path fill="#354000" d="M287.3,494.6h10v5h-10V494.6z"/>
			<path fill="#B48B00" d="M287.3,493.6h10v1h-10V493.6z"/>
		</g>
		<g>
			<path fill="#4D6900" d="M299.1,500.6h10v2h-10V500.6z"/>
			<path fill="#354000" d="M299.1,499.6h10v1h-10V499.6z"/>
			<path fill="#B48B00" d="M299.1,498.6h10v1h-10V498.6z"/>
		</g>
		<g>
			<path fill="#ABAF00" d="M334.5,501.6h10v1h-10V501.6z"/>
		</g>
		<g>
			<path fill="#354000" d="M346.4,500.6h10v2h-10V500.6z"/>
			<path fill="#5FE600" d="M346.4,498.6h10v2h-10V498.6z"/>
		</g>
		<g>
			<path fill="#354000" d="M358.2,499.6h10v3h-10V499.6z"/>
			<path fill="#B48B00" d="M358.2,497.6h10v2h-10V497.6z"/>
		</g>
		<g>
			<path fill="#8B5700" d="M370,501.6h10v1h-10V501.6z"/>
			<path fill="#354000" d="M370,498.6h10v3h-10V498.6z"/>
		</g>
	</g>
	<g>
		<g>
			<path fill="#FFFFFF" d="M240,545h10v2h-10V545z"/>
			<path fill="#B48B00" d="M240,544h10v1h-10V544z"/>
		</g>
		<g>
			<path fill="#C64300" d="M251.8,546h10v1h-10V546z"/>
			<path fill="#354000" d="M251.8,544h10v2h-10V544z"/>
			<path fill="#FFFFFF" d="M251.8,543h10v1h-10V543z"/>
			<path fill="#B48B00" d="M251.8,542h10v1h-10V542z"/>
		</g>
		<g>
			<path fill="#C64300" d="M263.6,545h10v2h-10V545z"/>
			<path fill="#354000" d="M263.6,544h10v1h-10V544z"/>
			<path fill="#FFFFFF" d="M263.6,543h10v1h-10V543z"/>
		</g>
		<g>
			<path fill="#8B5700" d="M275.5,546h10v1h-10V546z"/>
			<path fill="#354000" d="M275.5,544h10v2h-10V544z"/>
			<path fill="#6AFE00" d="M275.5,543h10v1h-10V543z"/>
			<path fill="#5FE600" d="M275.5,542h10v1h-10V542z"/>
		</g>
		<g>
			<path fill="#8B5700" d="M287.3,546h10v1h-10V546z"/>
			<path fill="#354000" d="M287.3,543h10v3h-10V543z"/>
			<path fill="#D0C300" d="M287.3,542h10v1h-10V542z"/>
		</g>
	</g>
	<g>
		<path fill="#C64300" stroke="#000000" d="M-245,114h20v20h-20V114z"/>
		<path fill="#ABAF00" stroke="#000000" d="M-245,141.3h20v20h-20V141.3z"/>
		<path fill="#8B5700" stroke="#000000" d="M-245,168.5h20v20h-20V168.5z"/>
		<path fill="#4D6900" stroke="#000000" d="M-245,195.8h20v20h-20V195.8z"/>
		<path fill="#BCF300" stroke="#000000" d="M-245,223.1h20v20h-20V223.1z"/>
		<path fill="#354000" stroke="#000000" d="M-245,250.4h20v20h-20V250.4z"/>
		<path fill="#6AFE00" stroke="#000000" d="M-245,277.6h20v20h-20V277.6z"/>
		<path fill="#D0C300" stroke="#000000" d="M-245,304.9h20v20h-20V304.9z"/>
		<path fill="#FFFFFF" stroke="#000000" d="M-245,332.2h20v20h-20V332.2z"/>
		<path fill="#888400" stroke="#000000" d="M-245,359.5h20v20h-20V359.5z"/>
		<path fill="#5FE600" stroke="#000000" d="M-245,386.7h20v20h-20V386.7z"/>
		<path fill="#B48B00" stroke="#000000" d="M-245,414h20v20h-20V414z"/>
		<path d="M-212.4,129h1.4l-3.1-9.6h-1.7l-3.1,9.6h1.3l0.7-2.4h3.7L-212.4,129z M-215,120.6L-215,120.6l1.6,4.9h-3.1L-215,120.6z
			 M-204.5,120.5l0.1-1.1h-6.9v1.1h2.8v8.5h1.3v-8.5H-204.5z"/>
		<path d="M-212.4,153.5c0,1.4-1.1,1.7-2.1,1.7h-1.7v-3.5h1.7C-213.4,151.7-212.4,152.1-212.4,153.5z M-212.8,149.1
			c0,1.1-0.6,1.6-1.7,1.6h-1.6v-3h1.5C-213.5,147.7-212.8,148.1-212.8,149.1z M-211,153.5c0-1.6-1.1-2.2-2.1-2.3v-0.1
			c0.8-0.2,1.7-0.8,1.7-2.1c0-1.9-1.7-2.4-3.4-2.4h-2.6v9.6h2.8C-212.9,156.3-211,155.6-211,153.5z"/>
		<path d="M-212.1,178.7c0,3.1-1.6,3.8-3,3.8h-1.1V175h1.1C-213.7,175-212.1,175.4-212.1,178.7z M-210.7,178.7c0-4-2.4-4.8-4.7-4.8
			h-2.2v9.6h2.3C-213.1,183.5-210.7,182.7-210.7,178.7z"/>
		<path d="M-212.1,205.9c0,3.1-1.6,3.8-3,3.8h-1.1v-7.5h1.1C-213.7,202.2-212.1,202.7-212.1,205.9z M-210.7,205.9
			c0-4-2.4-4.8-4.7-4.8h-2.2v9.6h2.3C-213.1,210.8-210.7,209.9-210.7,205.9z M-204,199.7l-1.1-0.3l-3.2,12.5l1.1,0.3L-204,199.7z
			 M-196.1,202.2l0.2-1.1h-5.1v9.6h1.3v-4.2h3.1v-1.1h-3.1v-3.3H-196.1z"/>
		<path d="M-212.1,233.2c0,3.1-1.6,3.8-3,3.8h-1.1v-7.5h1.1C-213.7,229.5-212.1,229.9-212.1,233.2z M-210.7,233.2
			c0-4-2.4-4.8-4.7-4.8h-2.2v9.6h2.3C-213.1,238.1-210.7,237.2-210.7,233.2z M-207,228.4h-1.3v9.6h1.3V228.4z M-203.1,238.1h1.6
			l-3.9-5.2l3.7-4.4h-1.5l-3.7,4.5L-203.1,238.1z"/>
		<path d="M-212.6,256.8l0.2-1.1h-5.1v9.6h1.3v-4.2h3.1v-1h-3.1v-3.3H-212.6z"/>
		<path d="M-212.6,284.1l0.2-1.1h-5.1v9.6h1.3v-4.2h3.1v-1h-3.1v-3.3H-212.6z M-206.2,281.5l-1.1-0.3l-3.2,12.5l1.1,0.3
			L-206.2,281.5z M-202,292.6V283h-1.3v9.6H-202z M-193.5,284.1l0.1-1.1h-6.9v1.1h2.8v8.5h1.3v-8.5H-193.5z"/>
		<path d="M-216.2,319.9v-9.6h-1.3v9.6H-216.2z M-207.7,311.4l0.1-1.1h-6.9v1.1h2.8v8.5h1.3v-8.5H-207.7z"/>
		<path d="M-208.7,347.2l-0.8-9.6h-1.8l-2,7h-0.1l-2.1-7h-1.8l-0.8,9.6h1.3l0.4-4.9c0.1-1.2,0.1-2.9,0.1-3.2h0.1l2.2,7.1h1.3
			l2.2-7.1h0.1c0,0.3,0,1.8,0.2,3.2l0.4,4.9H-208.7z M-205,347.2v-9.6h-1.3v9.6H-205z M-196.5,344.5c0-1.8-1.3-2.5-2.9-2.9
			c-1.7-0.5-2.1-0.9-2.1-1.7c0-0.9,0.8-1.4,1.7-1.4c0.8,0,1.5,0.3,2.2,0.9l0.8-0.8c-0.8-0.7-1.6-1.1-3-1.1c-1.8,0-3,1-3,2.5
			c0,1.5,1,2.2,2.9,2.8c1.6,0.5,2.1,1,2.1,1.9c0,1.2-0.9,1.7-2.1,1.7c-1,0-1.8-0.4-2.5-1l-0.8,0.9c0.8,0.8,1.9,1.2,3.3,1.2
			C-197.7,347.3-196.5,346.2-196.5,344.5z M-191,346.2c-1.5,0-2.7-1.1-2.7-3.9c0-2.9,1.2-3.9,2.7-3.9c0.7,0,1.3,0.2,1.9,0.7l0.7-0.9
			c-0.8-0.6-1.5-1-2.7-1c-2.2,0-4,1.7-4,5c0,3.2,1.7,5,4,5c1.3,0,2.2-0.5,2.8-1.1l-0.7-0.9C-189.4,345.8-190,346.2-191,346.2z"/>
		<path d="M-210.8,374.5v-9.6h-1.2v4.7c0,1.7,0.2,3.3,0.2,3.5h-0.1l-3.8-8.2h-1.8v9.6h1.2v-4.7c0-1.5-0.2-3.2-0.2-3.5h0.1l3.8,8.2
			H-210.8z M-202.7,374.5l0.2-1.2h-4v-8.5h-1.3v9.6H-202.7z"/>
		<path d="M-210.9,392.1h-1.3v6.5c0,1.5-0.7,2.2-2,2.2c-1.4,0-2-0.7-2-2.2v-6.5h-1.3v6.5c0,2,1.2,3.3,3.4,3.3c2.2,0,3.4-1.3,3.4-3.3
			V392.1z M-206.8,392.1h-1.3v9.6h1.3V392.1z M-202.9,401.7h1.6l-3.9-5.2l3.7-4.4h-1.5l-3.7,4.5L-202.9,401.7z"/>
		<path d="M-210.9,419.4h-1.3v6.5c0,1.5-0.7,2.2-2,2.2c-1.4,0-2-0.7-2-2.2v-6.5h-1.3v6.5c0,2,1.2,3.3,3.4,3.3c2.2,0,3.4-1.3,3.4-3.3
			V419.4z M-202.5,426.3c0-1.8-1.3-2.5-2.9-2.9c-1.7-0.5-2.1-0.9-2.1-1.7c0-0.9,0.8-1.4,1.7-1.4c0.8,0,1.5,0.3,2.2,0.9l0.8-0.8
			c-0.8-0.7-1.6-1.1-3-1.1c-1.8,0-3,1-3,2.5c0,1.5,1,2.2,2.9,2.8c1.6,0.5,2.1,1,2.1,1.9c0,1.2-0.9,1.7-2.1,1.7c-1.1,0-1.8-0.4-2.5-1
			l-0.8,0.9c0.8,0.8,1.9,1.2,3.3,1.2C-203.8,429.2-202.5,428-202.5,426.3z M-195.3,429h1.4l-3.1-9.6h-1.7l-3.1,9.6h1.3l0.7-2.4h3.7
			L-195.3,429z M-198,420.6L-198,420.6l1.6,4.9h-3.1L-198,420.6z"/>
	</g>
</g>
</svg>
